G75*
G70*
%OFA0B0*%
%FSLAX24Y24*%
%IPPOS*%
%LPD*%
%AMOC8*
5,1,8,0,0,1.08239X$1,22.5*
%
%ADD10C,0.0100*%
%ADD11C,0.0050*%
%ADD12C,0.0040*%
%ADD13C,0.0080*%
%ADD14C,0.0004*%
D10*
X008481Y002925D02*
X010031Y002925D01*
X010631Y002925D02*
X011181Y002925D01*
X011181Y003275D01*
X008481Y003275D02*
X008481Y002925D01*
D11*
X007831Y003175D02*
X007431Y003575D01*
X007431Y004975D01*
X007431Y004974D02*
X007432Y005002D01*
X007435Y005030D01*
X007443Y005057D01*
X007454Y005082D01*
X007468Y005107D01*
X007485Y005129D01*
X007505Y005148D01*
X007527Y005165D01*
X007551Y005179D01*
X007577Y005189D01*
X007604Y005196D01*
X007631Y005200D01*
X012031Y005200D01*
X012032Y005200D02*
X012059Y005196D01*
X012086Y005189D01*
X012112Y005179D01*
X012136Y005165D01*
X012158Y005148D01*
X012178Y005129D01*
X012195Y005107D01*
X012209Y005082D01*
X012220Y005057D01*
X012228Y005030D01*
X012231Y005002D01*
X012232Y004974D01*
X012231Y004975D02*
X012231Y003575D01*
X011831Y003175D01*
X011831Y002725D01*
X011829Y002702D01*
X011824Y002679D01*
X011815Y002657D01*
X011802Y002637D01*
X011787Y002619D01*
X011769Y002604D01*
X011749Y002591D01*
X011727Y002582D01*
X011704Y002577D01*
X011681Y002575D01*
X007981Y002575D01*
X007958Y002577D01*
X007935Y002582D01*
X007913Y002591D01*
X007893Y002604D01*
X007875Y002619D01*
X007860Y002637D01*
X007847Y002657D01*
X007838Y002679D01*
X007833Y002702D01*
X007831Y002725D01*
X007831Y003175D01*
X010256Y002895D02*
X010406Y002895D01*
X010331Y002820D02*
X010331Y002970D01*
D12*
X011848Y003669D02*
X012165Y003669D01*
X012165Y004458D01*
X011848Y004458D01*
X011848Y003669D01*
X007814Y003669D02*
X007497Y003669D01*
X007497Y004458D01*
X007814Y004458D01*
X007814Y003669D01*
D13*
X008131Y003784D02*
X008131Y004380D01*
X011532Y004380D02*
X011532Y003784D01*
D14*
X011640Y003435D02*
X011638Y003455D01*
X011633Y003474D01*
X011624Y003492D01*
X011612Y003508D01*
X011597Y003521D01*
X011580Y003532D01*
X011562Y003539D01*
X011542Y003543D01*
X011522Y003543D01*
X011502Y003539D01*
X011484Y003532D01*
X011467Y003521D01*
X011452Y003508D01*
X011440Y003492D01*
X011431Y003474D01*
X011426Y003455D01*
X011424Y003435D01*
X011424Y003191D01*
X011426Y003171D01*
X011431Y003152D01*
X011440Y003134D01*
X011452Y003118D01*
X011467Y003105D01*
X011484Y003094D01*
X011502Y003087D01*
X011522Y003083D01*
X011542Y003083D01*
X011562Y003087D01*
X011580Y003094D01*
X011597Y003105D01*
X011612Y003118D01*
X011624Y003134D01*
X011633Y003152D01*
X011638Y003171D01*
X011640Y003191D01*
X011640Y003435D01*
X011640Y004687D02*
X011640Y004931D01*
X011638Y004951D01*
X011633Y004970D01*
X011624Y004988D01*
X011612Y005004D01*
X011597Y005017D01*
X011580Y005028D01*
X011562Y005035D01*
X011542Y005039D01*
X011522Y005039D01*
X011502Y005035D01*
X011484Y005028D01*
X011467Y005017D01*
X011452Y005004D01*
X011440Y004988D01*
X011431Y004970D01*
X011426Y004951D01*
X011424Y004931D01*
X011424Y004687D01*
X011426Y004667D01*
X011431Y004648D01*
X011440Y004630D01*
X011452Y004614D01*
X011467Y004601D01*
X011484Y004590D01*
X011502Y004583D01*
X011522Y004579D01*
X011542Y004579D01*
X011562Y004583D01*
X011580Y004590D01*
X011597Y004601D01*
X011612Y004614D01*
X011624Y004630D01*
X011633Y004648D01*
X011638Y004667D01*
X011640Y004687D01*
X008239Y004687D02*
X008239Y004931D01*
X008237Y004951D01*
X008232Y004970D01*
X008223Y004988D01*
X008211Y005004D01*
X008196Y005017D01*
X008179Y005028D01*
X008161Y005035D01*
X008141Y005039D01*
X008121Y005039D01*
X008101Y005035D01*
X008083Y005028D01*
X008066Y005017D01*
X008051Y005004D01*
X008039Y004988D01*
X008030Y004970D01*
X008025Y004951D01*
X008023Y004931D01*
X008023Y004687D01*
X008025Y004667D01*
X008030Y004648D01*
X008039Y004630D01*
X008051Y004614D01*
X008066Y004601D01*
X008083Y004590D01*
X008101Y004583D01*
X008121Y004579D01*
X008141Y004579D01*
X008161Y004583D01*
X008179Y004590D01*
X008196Y004601D01*
X008211Y004614D01*
X008223Y004630D01*
X008232Y004648D01*
X008237Y004667D01*
X008239Y004687D01*
X008239Y003435D02*
X008239Y003191D01*
X008237Y003171D01*
X008232Y003152D01*
X008223Y003134D01*
X008211Y003118D01*
X008196Y003105D01*
X008179Y003094D01*
X008161Y003087D01*
X008141Y003083D01*
X008121Y003083D01*
X008101Y003087D01*
X008083Y003094D01*
X008066Y003105D01*
X008051Y003118D01*
X008039Y003134D01*
X008030Y003152D01*
X008025Y003171D01*
X008023Y003191D01*
X008023Y003435D01*
X008025Y003455D01*
X008030Y003474D01*
X008039Y003492D01*
X008051Y003508D01*
X008066Y003521D01*
X008083Y003532D01*
X008101Y003539D01*
X008121Y003543D01*
X008141Y003543D01*
X008161Y003539D01*
X008179Y003532D01*
X008196Y003521D01*
X008211Y003508D01*
X008223Y003492D01*
X008232Y003474D01*
X008237Y003455D01*
X008239Y003435D01*
M02*
