G75*
G70*
%OFA0B0*%
%FSLAX24Y24*%
%IPPOS*%
%LPD*%
%AMOC8*
5,1,8,0,0,1.08239X$1,22.5*
%
%ADD10C,0.0050*%
%ADD11R,0.0197X0.0220*%
%ADD12R,0.0315X0.0472*%
%ADD13R,0.0250X0.0472*%
%ADD14C,0.0004*%
%ADD15C,0.0433*%
%ADD16C,0.0787*%
%ADD17C,0.0200*%
%ADD18C,0.0100*%
%ADD19C,0.0340*%
D10*
X007431Y003575D02*
X007831Y003175D01*
X007831Y002725D01*
X007833Y002702D01*
X007838Y002679D01*
X007847Y002657D01*
X007860Y002637D01*
X007875Y002619D01*
X007893Y002604D01*
X007913Y002591D01*
X007935Y002582D01*
X007958Y002577D01*
X007981Y002575D01*
X011681Y002575D01*
X011704Y002577D01*
X011727Y002582D01*
X011749Y002591D01*
X011769Y002604D01*
X011787Y002619D01*
X011802Y002637D01*
X011815Y002657D01*
X011824Y002679D01*
X011829Y002702D01*
X011831Y002725D01*
X011831Y003175D01*
X012231Y003575D01*
X012231Y004975D01*
X012232Y004974D02*
X012231Y005002D01*
X012228Y005030D01*
X012220Y005057D01*
X012209Y005082D01*
X012195Y005107D01*
X012178Y005129D01*
X012158Y005148D01*
X012136Y005165D01*
X012112Y005179D01*
X012086Y005189D01*
X012059Y005196D01*
X012032Y005200D01*
X012031Y005200D02*
X007631Y005200D01*
X007604Y005196D01*
X007577Y005189D01*
X007551Y005179D01*
X007527Y005165D01*
X007505Y005148D01*
X007485Y005129D01*
X007468Y005107D01*
X007454Y005082D01*
X007443Y005057D01*
X007435Y005030D01*
X007432Y005002D01*
X007431Y004974D01*
X007431Y004975D02*
X007431Y003575D01*
D11*
X007656Y003840D03*
X007656Y004287D03*
X012007Y004287D03*
X012007Y003840D03*
D12*
X010914Y003263D03*
X010430Y003263D03*
X009233Y003263D03*
X008749Y003263D03*
D13*
X009635Y003263D03*
X010028Y003263D03*
D14*
X011424Y003191D02*
X011424Y003435D01*
X011426Y003455D01*
X011431Y003474D01*
X011440Y003492D01*
X011452Y003508D01*
X011467Y003521D01*
X011484Y003532D01*
X011502Y003539D01*
X011522Y003543D01*
X011542Y003543D01*
X011562Y003539D01*
X011580Y003532D01*
X011597Y003521D01*
X011612Y003508D01*
X011624Y003492D01*
X011633Y003474D01*
X011638Y003455D01*
X011640Y003435D01*
X011640Y003191D01*
X011638Y003171D01*
X011633Y003152D01*
X011624Y003134D01*
X011612Y003118D01*
X011597Y003105D01*
X011580Y003094D01*
X011562Y003087D01*
X011542Y003083D01*
X011522Y003083D01*
X011502Y003087D01*
X011484Y003094D01*
X011467Y003105D01*
X011452Y003118D01*
X011440Y003134D01*
X011431Y003152D01*
X011426Y003171D01*
X011424Y003191D01*
X011424Y004687D02*
X011424Y004931D01*
X011426Y004951D01*
X011431Y004970D01*
X011440Y004988D01*
X011452Y005004D01*
X011467Y005017D01*
X011484Y005028D01*
X011502Y005035D01*
X011522Y005039D01*
X011542Y005039D01*
X011562Y005035D01*
X011580Y005028D01*
X011597Y005017D01*
X011612Y005004D01*
X011624Y004988D01*
X011633Y004970D01*
X011638Y004951D01*
X011640Y004931D01*
X011640Y004687D01*
X011638Y004667D01*
X011633Y004648D01*
X011624Y004630D01*
X011612Y004614D01*
X011597Y004601D01*
X011580Y004590D01*
X011562Y004583D01*
X011542Y004579D01*
X011522Y004579D01*
X011502Y004583D01*
X011484Y004590D01*
X011467Y004601D01*
X011452Y004614D01*
X011440Y004630D01*
X011431Y004648D01*
X011426Y004667D01*
X011424Y004687D01*
X008239Y004687D02*
X008239Y004931D01*
X008237Y004951D01*
X008232Y004970D01*
X008223Y004988D01*
X008211Y005004D01*
X008196Y005017D01*
X008179Y005028D01*
X008161Y005035D01*
X008141Y005039D01*
X008121Y005039D01*
X008101Y005035D01*
X008083Y005028D01*
X008066Y005017D01*
X008051Y005004D01*
X008039Y004988D01*
X008030Y004970D01*
X008025Y004951D01*
X008023Y004931D01*
X008023Y004687D01*
X008025Y004667D01*
X008030Y004648D01*
X008039Y004630D01*
X008051Y004614D01*
X008066Y004601D01*
X008083Y004590D01*
X008101Y004583D01*
X008121Y004579D01*
X008141Y004579D01*
X008161Y004583D01*
X008179Y004590D01*
X008196Y004601D01*
X008211Y004614D01*
X008223Y004630D01*
X008232Y004648D01*
X008237Y004667D01*
X008239Y004687D01*
X008239Y003435D02*
X008239Y003191D01*
X008237Y003171D01*
X008232Y003152D01*
X008223Y003134D01*
X008211Y003118D01*
X008196Y003105D01*
X008179Y003094D01*
X008161Y003087D01*
X008141Y003083D01*
X008121Y003083D01*
X008101Y003087D01*
X008083Y003094D01*
X008066Y003105D01*
X008051Y003118D01*
X008039Y003134D01*
X008030Y003152D01*
X008025Y003171D01*
X008023Y003191D01*
X008023Y003435D01*
X008025Y003455D01*
X008030Y003474D01*
X008039Y003492D01*
X008051Y003508D01*
X008066Y003521D01*
X008083Y003532D01*
X008101Y003539D01*
X008121Y003543D01*
X008141Y003543D01*
X008161Y003539D01*
X008179Y003532D01*
X008196Y003521D01*
X008211Y003508D01*
X008223Y003492D01*
X008232Y003474D01*
X008237Y003455D01*
X008239Y003435D01*
D15*
X008131Y003197D02*
X008131Y003197D01*
X008131Y003433D01*
X008131Y003433D01*
X008131Y003197D01*
X008131Y004693D02*
X008131Y004693D01*
X008131Y004929D01*
X008131Y004929D01*
X008131Y004693D01*
X011532Y004693D02*
X011532Y004693D01*
X011532Y004929D01*
X011532Y004929D01*
X011532Y004693D01*
X011532Y003197D02*
X011532Y003197D01*
X011532Y003433D01*
X011532Y003433D01*
X011532Y003197D01*
D16*
X011281Y002525D03*
X010331Y002525D03*
X009331Y002525D03*
X008381Y002525D03*
D17*
X008749Y002958D02*
X008931Y002775D01*
X009081Y002775D01*
X009331Y002525D01*
X008749Y002958D02*
X008749Y003263D01*
X008183Y003263D01*
X008131Y003315D01*
X009233Y003263D02*
X009233Y003675D01*
X010331Y002525D02*
X010430Y002623D01*
X010430Y003263D01*
X010430Y003675D01*
X010914Y003263D02*
X011480Y003263D01*
X011532Y003315D01*
D18*
X011982Y003815D02*
X012007Y003840D01*
X011982Y003815D02*
X010791Y003815D01*
X010581Y004025D01*
X010103Y004025D01*
X010080Y004023D01*
X010057Y004018D01*
X010035Y004009D01*
X010015Y003996D01*
X009997Y003981D01*
X009982Y003963D01*
X009969Y003943D01*
X009960Y003921D01*
X009955Y003898D01*
X009953Y003875D01*
X009953Y003325D01*
X010028Y003278D01*
X010028Y003263D01*
X009710Y003375D02*
X009710Y003875D01*
X009708Y003898D01*
X009703Y003921D01*
X009694Y003943D01*
X009681Y003963D01*
X009666Y003981D01*
X009648Y003996D01*
X009628Y004009D01*
X009606Y004018D01*
X009583Y004023D01*
X009560Y004025D01*
X009081Y004025D01*
X008872Y003815D01*
X007681Y003815D01*
X007656Y003840D01*
X007656Y004287D02*
X007697Y004289D01*
X007738Y004294D01*
X007779Y004303D01*
X007818Y004316D01*
X007857Y004332D01*
X007893Y004351D01*
X007928Y004373D01*
X007961Y004398D01*
X007992Y004426D01*
X008020Y004457D01*
X008045Y004490D01*
X008067Y004524D01*
X008086Y004561D01*
X008102Y004600D01*
X008115Y004639D01*
X008124Y004680D01*
X008129Y004721D01*
X008131Y004762D01*
X008131Y004811D01*
X009635Y003328D02*
X009635Y003263D01*
X009635Y003328D02*
X009710Y003375D01*
X011532Y004762D02*
X011532Y004811D01*
X011532Y004762D02*
X011534Y004721D01*
X011539Y004680D01*
X011548Y004639D01*
X011561Y004600D01*
X011577Y004561D01*
X011596Y004525D01*
X011618Y004490D01*
X011643Y004457D01*
X011671Y004426D01*
X011702Y004398D01*
X011735Y004373D01*
X011769Y004351D01*
X011806Y004332D01*
X011845Y004316D01*
X011884Y004303D01*
X011925Y004294D01*
X011966Y004289D01*
X012007Y004287D01*
D19*
X010430Y003675D03*
X009233Y003675D03*
M02*
