G75*
G70*
%OFA0B0*%
%FSLAX24Y24*%
%IPPOS*%
%LPD*%
%AMOC8*
5,1,8,0,0,1.08239X$1,22.5*
%
%ADD10C,0.0060*%
%ADD11C,0.0050*%
%ADD12C,0.0020*%
%ADD13C,0.0040*%
D10*
X008577Y004865D02*
X008627Y004815D01*
X008777Y004815D01*
X008777Y005115D01*
X008627Y005115D01*
X008577Y005065D01*
X008577Y005015D01*
X008627Y004965D01*
X008777Y004965D01*
X008908Y004915D02*
X008908Y004865D01*
X008958Y004815D01*
X009058Y004815D01*
X009109Y004865D01*
X009058Y004965D02*
X008958Y004965D01*
X008908Y004915D01*
X008908Y005065D02*
X008958Y005115D01*
X009058Y005115D01*
X009109Y005065D01*
X009109Y005015D01*
X009058Y004965D01*
X009240Y004865D02*
X009240Y005115D01*
X009240Y004865D02*
X009290Y004815D01*
X009390Y004815D01*
X009440Y004865D01*
X009440Y005115D01*
X009903Y005065D02*
X009953Y005115D01*
X010053Y005115D01*
X010103Y005065D01*
X010103Y005015D01*
X010053Y004965D01*
X009953Y004965D01*
X009903Y004915D01*
X009903Y004865D01*
X009953Y004815D01*
X010053Y004815D01*
X010103Y004865D01*
X010234Y004865D02*
X010234Y005065D01*
X010284Y005115D01*
X010434Y005115D01*
X010434Y004815D01*
X010284Y004815D01*
X010234Y004865D01*
X010313Y004625D02*
X010263Y004575D01*
X010263Y004525D01*
X010313Y004475D01*
X010263Y004425D01*
X010263Y004375D01*
X010313Y004325D01*
X010413Y004325D01*
X010463Y004375D01*
X010594Y004325D02*
X010794Y004325D01*
X010594Y004525D01*
X010594Y004575D01*
X010644Y004625D01*
X010744Y004625D01*
X010794Y004575D01*
X010766Y004815D02*
X010566Y005015D01*
X010566Y005065D01*
X010616Y005115D01*
X010716Y005115D01*
X010766Y005065D01*
X010897Y005115D02*
X010897Y004815D01*
X011097Y005115D01*
X011097Y004815D01*
X010766Y004815D02*
X010566Y004815D01*
X010413Y004625D02*
X010313Y004625D01*
X010413Y004625D02*
X010463Y004575D01*
X010363Y004475D02*
X010313Y004475D01*
X010263Y004175D02*
X010263Y004125D01*
X010463Y003925D01*
X010463Y003875D01*
X010594Y003925D02*
X010644Y003875D01*
X010744Y003875D01*
X010794Y003925D01*
X010594Y004125D01*
X010594Y003925D01*
X010594Y004125D02*
X010644Y004175D01*
X010744Y004175D01*
X010794Y004125D01*
X010794Y003925D01*
X010463Y004175D02*
X010263Y004175D01*
X009421Y004075D02*
X009321Y004175D01*
X009321Y003875D01*
X009421Y003875D02*
X009221Y003875D01*
X009090Y003875D02*
X009090Y003925D01*
X009040Y003925D01*
X009040Y003875D01*
X009090Y003875D01*
X008924Y003875D02*
X008724Y004075D01*
X008724Y004125D01*
X008774Y004175D01*
X008874Y004175D01*
X008924Y004125D01*
X008924Y003875D02*
X008724Y003875D01*
X009221Y004425D02*
X009221Y004625D01*
X009421Y004625D02*
X009421Y004425D01*
X009321Y004325D01*
X009221Y004425D01*
X008577Y004865D02*
X008577Y004915D01*
X008627Y004965D01*
D11*
X007481Y003525D02*
X007831Y003175D01*
X007831Y002725D01*
X007833Y002702D01*
X007838Y002679D01*
X007847Y002657D01*
X007860Y002637D01*
X007875Y002619D01*
X007893Y002604D01*
X007913Y002591D01*
X007935Y002582D01*
X007958Y002577D01*
X007981Y002575D01*
X011681Y002575D01*
X011704Y002577D01*
X011727Y002582D01*
X011749Y002591D01*
X011769Y002604D01*
X011787Y002619D01*
X011802Y002637D01*
X011815Y002657D01*
X011824Y002679D01*
X011829Y002702D01*
X011831Y002725D01*
X011831Y003175D01*
X012181Y003525D01*
X012181Y004975D01*
X012182Y004974D02*
X012181Y005002D01*
X012178Y005030D01*
X012170Y005057D01*
X012159Y005082D01*
X012145Y005107D01*
X012128Y005129D01*
X012108Y005148D01*
X012086Y005165D01*
X012062Y005179D01*
X012036Y005189D01*
X012009Y005196D01*
X011982Y005200D01*
X011981Y005200D02*
X007681Y005200D01*
X007654Y005196D01*
X007627Y005189D01*
X007601Y005179D01*
X007577Y005165D01*
X007555Y005148D01*
X007535Y005129D01*
X007518Y005107D01*
X007504Y005082D01*
X007493Y005057D01*
X007485Y005030D01*
X007482Y005002D01*
X007481Y004974D01*
X007481Y004975D02*
X007481Y003525D01*
X008936Y003305D02*
X008979Y003355D01*
X009001Y003370D01*
X009064Y003370D01*
X009116Y003335D01*
X009139Y003290D01*
X009139Y003230D01*
X009119Y003192D01*
X009096Y003165D01*
X009064Y003150D01*
X009029Y003142D02*
X008964Y003170D01*
X008931Y003232D01*
X008936Y003305D01*
D12*
X008916Y003315D02*
X008926Y003335D01*
X008964Y003372D01*
X008991Y003387D01*
X009019Y003392D01*
X009061Y003392D01*
X009089Y003382D01*
X009116Y003365D01*
X009139Y003342D01*
X009154Y003320D01*
X009164Y003282D01*
X009164Y003235D01*
X009159Y003217D01*
X009151Y003197D01*
X009141Y003180D01*
X009124Y003162D01*
X009104Y003145D01*
X009084Y003135D01*
X009059Y003127D01*
X009049Y003127D01*
X009046Y003127D02*
X009014Y003127D01*
X008991Y003132D01*
X008966Y003142D01*
X008944Y003162D01*
X008926Y003187D01*
X008914Y003205D01*
X008909Y003230D01*
X008909Y003287D01*
X008916Y003315D01*
X008964Y003305D02*
X008976Y003325D01*
X008991Y003340D01*
X009006Y003347D01*
X009014Y003350D01*
X009054Y003350D01*
X009071Y003345D01*
X009091Y003332D01*
X009101Y003320D01*
X009114Y003300D01*
X009119Y003285D01*
X009119Y003235D01*
X009109Y003212D01*
X009096Y003192D01*
X009079Y003177D01*
X009061Y003167D01*
X009021Y003167D01*
X009029Y003165D02*
X009009Y003170D01*
X008989Y003180D01*
X008976Y003192D01*
X008964Y003210D01*
X008959Y003222D01*
X008956Y003232D01*
X008956Y003285D01*
X008964Y003305D01*
X008844Y003302D02*
X008844Y003130D01*
X008801Y003130D01*
X008801Y003305D01*
X008794Y003320D01*
X008786Y003332D01*
X008776Y003342D01*
X008759Y003350D01*
X008729Y003350D01*
X008709Y003340D01*
X008696Y003330D01*
X008684Y003312D01*
X008684Y003132D01*
X008639Y003132D01*
X008639Y003312D01*
X008636Y003317D01*
X008626Y003332D01*
X008609Y003347D01*
X008569Y003347D01*
X008559Y003342D01*
X008544Y003337D01*
X008534Y003322D01*
X008526Y003305D01*
X008526Y003132D01*
X008481Y003132D01*
X008481Y003287D01*
X008484Y003310D01*
X008489Y003325D01*
X008499Y003347D01*
X008511Y003362D01*
X008529Y003377D01*
X008549Y003387D01*
X008566Y003392D01*
X008601Y003392D01*
X008614Y003390D01*
X008631Y003380D01*
X008646Y003367D01*
X008659Y003360D01*
X008669Y003360D01*
X008679Y003370D01*
X008704Y003385D01*
X008724Y003392D01*
X008764Y003392D01*
X008796Y003380D01*
X008819Y003362D01*
X008834Y003337D01*
X008844Y003302D01*
X009216Y003345D02*
X009216Y003387D01*
X009266Y003387D01*
X009289Y003385D01*
X009311Y003377D01*
X009336Y003362D01*
X009354Y003345D01*
X009366Y003330D01*
X009376Y003310D01*
X009384Y003290D01*
X009389Y003272D01*
X009389Y003242D01*
X009384Y003217D01*
X009371Y003192D01*
X009359Y003177D01*
X009344Y003162D01*
X009324Y003147D01*
X009306Y003140D01*
X009286Y003135D01*
X009259Y003130D01*
X009216Y003130D01*
X009216Y003172D01*
X009266Y003172D01*
X009284Y003177D01*
X009306Y003187D01*
X009324Y003205D01*
X009336Y003222D01*
X009341Y003235D01*
X009344Y003240D01*
X009344Y003280D01*
X009334Y003295D01*
X009321Y003317D01*
X009299Y003332D01*
X009284Y003340D01*
X009259Y003345D01*
X009216Y003345D01*
X009231Y003360D02*
X009286Y003357D01*
X009331Y003325D01*
X009356Y003290D01*
X009354Y003225D01*
X009324Y003182D01*
X009286Y003162D01*
X009231Y003157D01*
X009226Y003142D02*
X009294Y003147D01*
X009344Y003180D01*
X009371Y003227D01*
X009371Y003295D01*
X009334Y003345D01*
X009286Y003372D01*
X009231Y003375D01*
X009231Y003360D01*
X009261Y003130D02*
X009259Y003130D01*
X009466Y003145D02*
X009466Y003162D01*
X009471Y003172D01*
X009484Y003185D01*
X009506Y003185D01*
X009516Y003177D01*
X009524Y003167D01*
X009524Y003147D01*
X009521Y003140D01*
X009511Y003130D01*
X009501Y003127D01*
X009484Y003145D01*
X009481Y003162D01*
X009494Y003172D01*
X009506Y003162D01*
X009504Y003147D01*
X009496Y003155D01*
X009496Y003127D02*
X009486Y003127D01*
X009479Y003130D01*
X009469Y003137D01*
X009466Y003145D01*
X009611Y003132D02*
X009611Y003272D01*
X009616Y003297D01*
X009624Y003317D01*
X009639Y003345D01*
X009659Y003365D01*
X009689Y003382D01*
X009709Y003390D01*
X009724Y003392D01*
X009764Y003392D01*
X009789Y003385D01*
X009811Y003375D01*
X009834Y003355D01*
X009851Y003332D01*
X009861Y003310D01*
X009869Y003285D01*
X009869Y003235D01*
X009856Y003197D01*
X009836Y003167D01*
X009819Y003150D01*
X009796Y003140D01*
X009766Y003127D01*
X009724Y003127D01*
X009676Y003142D01*
X009671Y003145D01*
X009664Y003145D01*
X009654Y003132D01*
X009646Y003132D01*
X009641Y003132D02*
X009611Y003132D01*
X009624Y003140D02*
X009629Y003277D01*
X009651Y003337D01*
X009681Y003360D01*
X009726Y003375D01*
X009771Y003375D01*
X009811Y003357D01*
X009846Y003310D01*
X009854Y003277D01*
X009851Y003225D01*
X009811Y003162D01*
X009764Y003140D01*
X009721Y003145D01*
X009679Y003162D01*
X009659Y003155D01*
X009644Y003145D01*
X009644Y003155D01*
X009674Y003172D01*
X009639Y003162D01*
X009649Y003185D01*
X009639Y003185D01*
X009646Y003285D01*
X009674Y003342D01*
X009731Y003362D01*
X009789Y003355D01*
X009829Y003317D01*
X009839Y003242D01*
X009824Y003200D01*
X009794Y003165D01*
X009721Y003150D01*
X009716Y003165D02*
X009696Y003172D01*
X009679Y003185D01*
X009676Y003187D01*
X009669Y003180D01*
X009661Y003185D02*
X009659Y003187D01*
X009656Y003192D01*
X009659Y003287D01*
X009664Y003300D01*
X009674Y003320D01*
X009691Y003337D01*
X009711Y003347D01*
X009719Y003350D01*
X009761Y003350D01*
X009784Y003342D01*
X009801Y003330D01*
X009814Y003312D01*
X009824Y003295D01*
X009824Y003225D01*
X009814Y003210D01*
X009796Y003185D01*
X009776Y003170D01*
X009759Y003165D01*
X009716Y003165D01*
X009926Y003175D02*
X009926Y003217D01*
X009934Y003237D01*
X009951Y003252D01*
X010059Y003300D01*
X010069Y003310D01*
X010071Y003315D01*
X010071Y003332D01*
X010066Y003342D01*
X010064Y003345D01*
X010056Y003347D01*
X009939Y003347D01*
X009939Y003387D01*
X010051Y003387D01*
X010074Y003382D01*
X010089Y003375D01*
X010104Y003360D01*
X010114Y003345D01*
X010116Y003327D01*
X010116Y003312D01*
X010109Y003295D01*
X010096Y003277D01*
X010059Y003252D01*
X009981Y003220D01*
X009971Y003207D01*
X009966Y003195D01*
X009976Y003182D01*
X009989Y003172D01*
X010116Y003172D01*
X010116Y003132D01*
X010001Y003132D01*
X009961Y003140D01*
X009941Y003152D01*
X009926Y003175D01*
X009941Y003177D02*
X009949Y003227D01*
X009971Y003250D01*
X010076Y003295D01*
X010089Y003315D01*
X010079Y003345D01*
X010064Y003360D01*
X009954Y003362D01*
X009951Y003372D01*
X010064Y003370D01*
X010094Y003355D01*
X010099Y003307D01*
X010074Y003277D01*
X009969Y003230D01*
X009959Y003200D01*
X009954Y003180D01*
X009979Y003162D01*
X009989Y003157D02*
X010104Y003157D01*
X010109Y003155D01*
X010081Y003152D01*
X010106Y003145D02*
X009979Y003147D01*
X009989Y003157D01*
X009971Y003147D02*
X009941Y003177D01*
X010114Y003135D02*
X010116Y003132D01*
X010194Y003177D02*
X010179Y003210D01*
X010169Y003242D01*
X010214Y003250D01*
X010221Y003220D01*
X010231Y003202D01*
X010246Y003187D01*
X010264Y003175D01*
X010279Y003167D01*
X010319Y003167D01*
X010326Y003172D01*
X010341Y003180D01*
X010361Y003192D01*
X010374Y003217D01*
X010384Y003242D01*
X010384Y003265D01*
X010381Y003295D01*
X010374Y003305D01*
X010366Y003317D01*
X010346Y003337D01*
X010324Y003350D01*
X010271Y003350D01*
X010259Y003342D01*
X010251Y003330D01*
X010249Y003317D01*
X010364Y003250D01*
X010344Y003220D01*
X010346Y003220D02*
X010176Y003315D01*
X010191Y003337D01*
X010209Y003357D01*
X010226Y003372D01*
X010249Y003385D01*
X010276Y003392D01*
X010324Y003392D01*
X010341Y003387D01*
X010369Y003372D01*
X010394Y003352D01*
X010419Y003315D01*
X010426Y003287D01*
X010431Y003257D01*
X010429Y003232D01*
X010421Y003207D01*
X010404Y003177D01*
X010386Y003157D01*
X010366Y003142D01*
X010341Y003132D01*
X010321Y003127D01*
X010271Y003127D01*
X010249Y003135D01*
X010229Y003145D01*
X010211Y003157D01*
X010194Y003177D01*
X010211Y003177D02*
X010186Y003235D01*
X010204Y003232D02*
X010219Y003190D01*
X010266Y003160D01*
X010281Y003152D01*
X010324Y003152D01*
X010371Y003177D01*
X010399Y003240D01*
X010394Y003300D01*
X010374Y003335D01*
X010331Y003360D01*
X010279Y003362D01*
X010251Y003350D01*
X010239Y003332D01*
X010234Y003315D01*
X010346Y003250D01*
X010344Y003235D01*
X010196Y003320D01*
X010231Y003360D01*
X010219Y003320D01*
X010231Y003342D02*
X010271Y003380D01*
X010289Y003380D01*
X010326Y003380D02*
X010389Y003342D01*
X010406Y003300D01*
X010414Y003232D01*
X010384Y003170D01*
X010324Y003140D01*
X010269Y003140D01*
X010211Y003177D01*
X010239Y003365D02*
X010326Y003377D01*
X010479Y003390D02*
X010559Y003390D01*
X010556Y003397D01*
X010556Y003457D01*
X010604Y003457D01*
X010604Y003210D01*
X010591Y003175D01*
X010576Y003152D01*
X010554Y003140D01*
X010531Y003135D01*
X010511Y003130D01*
X010494Y003142D01*
X010531Y003150D01*
X010564Y003160D01*
X010579Y003187D01*
X010591Y003217D01*
X010591Y003442D01*
X010571Y003445D01*
X010574Y003215D01*
X010551Y003170D01*
X010491Y003152D01*
X010481Y003170D02*
X010516Y003170D01*
X010531Y003177D01*
X010541Y003185D01*
X010549Y003192D01*
X010556Y003207D01*
X010556Y003345D01*
X010549Y003347D01*
X010479Y003347D01*
X010479Y003390D01*
X010491Y003375D02*
X010561Y003375D01*
X010564Y003360D02*
X010491Y003357D01*
X010491Y003375D01*
X010679Y003505D02*
X010679Y003132D01*
X010724Y003132D01*
X010724Y003135D02*
X010724Y003505D01*
X010679Y003505D01*
X010691Y003492D02*
X010691Y003142D01*
X010709Y003142D02*
X010711Y003492D01*
X010691Y003492D01*
X010801Y003465D02*
X010801Y003457D01*
X010806Y003447D01*
X010811Y003440D01*
X010821Y003435D01*
X010829Y003437D01*
X010829Y003435D02*
X010819Y003465D01*
X010829Y003475D01*
X010839Y003467D01*
X010836Y003450D01*
X010849Y003445D02*
X010839Y003435D01*
X010829Y003435D01*
X010849Y003445D02*
X010854Y003455D01*
X010854Y003470D01*
X010846Y003482D01*
X010836Y003490D01*
X010821Y003490D01*
X010814Y003485D01*
X010804Y003475D01*
X010801Y003465D01*
X010806Y003387D02*
X010851Y003387D01*
X010851Y003132D01*
X010806Y003132D01*
X010806Y003387D01*
X010824Y003375D02*
X010819Y003145D01*
X010834Y003145D01*
X010839Y003375D01*
X010939Y003320D02*
X010954Y003342D01*
X010974Y003365D01*
X010994Y003377D01*
X011021Y003390D01*
X011036Y003392D01*
X011079Y003392D01*
X011111Y003382D01*
X011134Y003370D01*
X011151Y003352D01*
X011166Y003332D01*
X011176Y003315D01*
X011184Y003282D01*
X011184Y003237D01*
X011179Y003217D01*
X011169Y003192D01*
X011154Y003170D01*
X011131Y003147D01*
X011081Y003127D01*
X011039Y003127D01*
X010991Y003142D01*
X010974Y003147D01*
X010974Y003102D01*
X010989Y003085D01*
X011009Y003067D01*
X011029Y003057D01*
X011049Y003052D01*
X011079Y003052D01*
X011129Y003065D01*
X011139Y003025D01*
X011076Y003007D01*
X011046Y003007D01*
X011011Y003012D01*
X010989Y003025D01*
X010964Y003042D01*
X010944Y003067D01*
X010934Y003092D01*
X010926Y003120D01*
X010926Y003277D01*
X010931Y003297D01*
X010939Y003320D01*
X010946Y003297D02*
X010981Y003352D01*
X011024Y003372D01*
X011069Y003377D01*
X011121Y003357D01*
X011164Y003307D01*
X011166Y003232D01*
X011154Y003200D01*
X011121Y003155D01*
X011054Y003135D01*
X010974Y003157D01*
X010974Y003180D01*
X011039Y003150D01*
X011096Y003157D01*
X011136Y003192D01*
X011151Y003245D01*
X011144Y003312D01*
X011114Y003347D01*
X011079Y003362D01*
X011026Y003357D01*
X010986Y003345D01*
X010961Y003297D01*
X010961Y003290D02*
X010959Y003095D01*
X011006Y003045D01*
X011064Y003037D01*
X011119Y003050D01*
X011131Y003040D02*
X011064Y003022D01*
X011004Y003030D01*
X010961Y003070D01*
X010944Y003107D01*
X010944Y003287D01*
X010961Y003290D01*
X010974Y003290D02*
X010974Y003197D01*
X010969Y003200D02*
X010996Y003182D01*
X011029Y003170D01*
X011036Y003167D01*
X011079Y003167D01*
X011101Y003177D01*
X011119Y003197D01*
X011136Y003230D01*
X011139Y003295D01*
X011136Y003292D02*
X011129Y003307D01*
X011116Y003322D01*
X011104Y003335D01*
X011086Y003347D01*
X011069Y003350D01*
X011031Y003350D01*
X011011Y003340D01*
X010991Y003325D01*
X010979Y003305D01*
X010974Y003290D01*
X010506Y003130D02*
X010481Y003130D01*
X010481Y003170D01*
D13*
X008821Y003152D02*
X008824Y003302D01*
X008789Y003357D01*
X008751Y003372D01*
X008699Y003357D01*
X008666Y003332D01*
X008661Y003145D01*
X008501Y003152D02*
X008504Y003307D01*
X008531Y003352D01*
X008581Y003367D01*
X008619Y003365D01*
X008651Y003337D01*
M02*
