G75*
G70*
%OFA0B0*%
%FSLAX24Y24*%
%IPPOS*%
%LPD*%
%AMOC8*
5,1,8,0,0,1.08239X$1,22.5*
%
%ADD10C,0.0050*%
%ADD11C,0.0236*%
D10*
X007481Y003525D02*
X007831Y003175D01*
X007831Y002725D01*
X007833Y002702D01*
X007838Y002679D01*
X007847Y002657D01*
X007860Y002637D01*
X007875Y002619D01*
X007893Y002604D01*
X007913Y002591D01*
X007935Y002582D01*
X007958Y002577D01*
X007981Y002575D01*
X011681Y002575D01*
X011704Y002577D01*
X011727Y002582D01*
X011749Y002591D01*
X011769Y002604D01*
X011787Y002619D01*
X011802Y002637D01*
X011815Y002657D01*
X011824Y002679D01*
X011829Y002702D01*
X011831Y002725D01*
X011831Y003175D01*
X012181Y003525D01*
X012181Y004975D01*
X012182Y004974D02*
X012181Y005002D01*
X012178Y005030D01*
X012170Y005057D01*
X012159Y005082D01*
X012145Y005107D01*
X012128Y005129D01*
X012108Y005148D01*
X012086Y005165D01*
X012062Y005179D01*
X012036Y005189D01*
X012009Y005196D01*
X011982Y005200D01*
X011981Y005200D02*
X007681Y005200D01*
X007654Y005196D01*
X007627Y005189D01*
X007601Y005179D01*
X007577Y005165D01*
X007555Y005148D01*
X007535Y005129D01*
X007518Y005107D01*
X007504Y005082D01*
X007493Y005057D01*
X007485Y005030D01*
X007482Y005002D01*
X007481Y004974D01*
X007481Y004975D02*
X007481Y003525D01*
D11*
X008129Y003435D02*
X008129Y003191D01*
X008129Y004687D02*
X008129Y004931D01*
X011530Y004931D02*
X011530Y004687D01*
X011530Y003435D02*
X011530Y003191D01*
M02*
