G75*
G70*
%OFA0B0*%
%FSLAX24Y24*%
%IPPOS*%
%LPD*%
%AMOC8*
5,1,8,0,0,1.08239X$1,22.5*
%
%ADD10C,0.0050*%
%ADD11C,0.0787*%
%ADD12C,0.0277*%
%ADD13C,0.0004*%
%ADD14C,0.0200*%
%ADD15C,0.0800*%
%ADD16C,0.0100*%
%ADD17C,0.0340*%
D10*
X007481Y003525D02*
X007831Y003175D01*
X007831Y002725D01*
X007833Y002702D01*
X007838Y002679D01*
X007847Y002657D01*
X007860Y002637D01*
X007875Y002619D01*
X007893Y002604D01*
X007913Y002591D01*
X007935Y002582D01*
X007958Y002577D01*
X007981Y002575D01*
X011681Y002575D01*
X011704Y002577D01*
X011727Y002582D01*
X011749Y002591D01*
X011769Y002604D01*
X011787Y002619D01*
X011802Y002637D01*
X011815Y002657D01*
X011824Y002679D01*
X011829Y002702D01*
X011831Y002725D01*
X011831Y003175D01*
X012181Y003525D01*
X012181Y004975D01*
X012182Y004974D02*
X012181Y005002D01*
X012178Y005030D01*
X012170Y005057D01*
X012159Y005082D01*
X012145Y005107D01*
X012128Y005129D01*
X012108Y005148D01*
X012086Y005165D01*
X012062Y005179D01*
X012036Y005189D01*
X012009Y005196D01*
X011982Y005200D01*
X011981Y005200D02*
X007681Y005200D01*
X007654Y005196D01*
X007627Y005189D01*
X007601Y005179D01*
X007577Y005165D01*
X007555Y005148D01*
X007535Y005129D01*
X007518Y005107D01*
X007504Y005082D01*
X007493Y005057D01*
X007485Y005030D01*
X007482Y005002D01*
X007481Y004974D01*
X007481Y004975D02*
X007481Y003525D01*
X008231Y003625D02*
X008581Y003625D01*
X008931Y003975D01*
X008981Y003975D02*
X008631Y003625D01*
X008581Y003625D01*
X008631Y003625D02*
X008681Y003625D01*
X009031Y003975D01*
X010631Y003975D02*
X010981Y003625D01*
X011381Y003625D01*
X011431Y003625D01*
X011381Y003625D02*
X011031Y003625D01*
X010681Y003975D01*
X011315Y004352D02*
X011315Y004430D01*
X011315Y004352D02*
X011451Y004215D01*
X011451Y003995D01*
X011431Y003975D01*
D11*
X011281Y002525D03*
X010331Y002525D03*
X009331Y002525D03*
X008381Y002525D03*
D12*
X008131Y003315D03*
X008131Y004811D03*
X011531Y004811D03*
X011531Y003315D03*
D13*
X011316Y003316D02*
X011746Y003316D01*
X011746Y003318D02*
X011316Y003318D01*
X011316Y003321D02*
X011746Y003321D01*
X011746Y003323D02*
X011316Y003323D01*
X011316Y003326D02*
X011746Y003326D01*
X011746Y003328D02*
X011316Y003328D01*
X011316Y003330D02*
X011746Y003330D01*
X011746Y003333D02*
X011316Y003333D01*
X011316Y003335D02*
X011746Y003335D01*
X011746Y003338D02*
X011316Y003338D01*
X011316Y003340D02*
X011746Y003340D01*
X011746Y003343D02*
X011316Y003343D01*
X011316Y003345D02*
X011746Y003345D01*
X011746Y003348D02*
X011316Y003348D01*
X011316Y003350D02*
X011746Y003350D01*
X011746Y003352D02*
X011316Y003352D01*
X011316Y003355D02*
X011746Y003355D01*
X011746Y003357D02*
X011316Y003357D01*
X011316Y003360D02*
X011746Y003360D01*
X011746Y003362D02*
X011316Y003362D01*
X011316Y003365D02*
X011746Y003365D01*
X011746Y003367D02*
X011316Y003367D01*
X011316Y003369D02*
X011746Y003369D01*
X011746Y003372D02*
X011316Y003372D01*
X011316Y003374D02*
X011746Y003374D01*
X011746Y003377D02*
X011316Y003377D01*
X011316Y003379D02*
X011746Y003379D01*
X011746Y003382D02*
X011316Y003382D01*
X011316Y003384D02*
X011746Y003384D01*
X011746Y003387D02*
X011316Y003387D01*
X011316Y003389D02*
X011746Y003389D01*
X011746Y003391D02*
X011316Y003391D01*
X011316Y003394D02*
X011746Y003394D01*
X011746Y003396D02*
X011316Y003396D01*
X011316Y003399D02*
X011746Y003399D01*
X011746Y003401D02*
X011316Y003401D01*
X011316Y003404D02*
X011746Y003404D01*
X011746Y003406D02*
X011316Y003406D01*
X011316Y003408D02*
X011746Y003408D01*
X011746Y003411D02*
X011316Y003411D01*
X011316Y003413D02*
X011746Y003413D01*
X011746Y003416D02*
X011316Y003416D01*
X011316Y003418D02*
X011746Y003418D01*
X011746Y003421D02*
X011316Y003421D01*
X011316Y003423D02*
X011746Y003423D01*
X011746Y003426D02*
X011316Y003426D01*
X011316Y003428D02*
X011746Y003428D01*
X011746Y003430D02*
X011316Y003430D01*
X011316Y003433D02*
X011746Y003433D01*
X011740Y003481D01*
X011724Y003526D01*
X011699Y003567D01*
X011363Y003567D01*
X011337Y003526D01*
X011321Y003481D01*
X011316Y003433D01*
X011316Y003197D01*
X011321Y003149D01*
X011337Y003104D01*
X011724Y003104D01*
X011740Y003149D01*
X011746Y003197D01*
X011746Y003433D01*
X011745Y003435D02*
X011316Y003435D01*
X011316Y003438D02*
X011745Y003438D01*
X011745Y003440D02*
X011317Y003440D01*
X011317Y003443D02*
X011745Y003443D01*
X011744Y003445D02*
X011317Y003445D01*
X011317Y003447D02*
X011744Y003447D01*
X011744Y003450D02*
X011318Y003450D01*
X011318Y003452D02*
X011743Y003452D01*
X011743Y003455D02*
X011318Y003455D01*
X011319Y003457D02*
X011743Y003457D01*
X011743Y003460D02*
X011319Y003460D01*
X011319Y003462D02*
X011742Y003462D01*
X011742Y003465D02*
X011319Y003465D01*
X011320Y003467D02*
X011742Y003467D01*
X011741Y003469D02*
X011320Y003469D01*
X011320Y003472D02*
X011741Y003472D01*
X011741Y003474D02*
X011320Y003474D01*
X011321Y003477D02*
X011741Y003477D01*
X011740Y003479D02*
X011321Y003479D01*
X011321Y003482D02*
X011740Y003482D01*
X011739Y003484D02*
X011322Y003484D01*
X011323Y003486D02*
X011738Y003486D01*
X011737Y003489D02*
X011324Y003489D01*
X011325Y003491D02*
X011737Y003491D01*
X011736Y003494D02*
X011326Y003494D01*
X011327Y003496D02*
X011735Y003496D01*
X011734Y003499D02*
X011327Y003499D01*
X011328Y003501D02*
X011733Y003501D01*
X011732Y003504D02*
X011329Y003504D01*
X011330Y003506D02*
X011731Y003506D01*
X011731Y003508D02*
X011331Y003508D01*
X011332Y003511D02*
X011730Y003511D01*
X011729Y003513D02*
X011333Y003513D01*
X011333Y003516D02*
X011728Y003516D01*
X011727Y003518D02*
X011334Y003518D01*
X011335Y003521D02*
X011726Y003521D01*
X011725Y003523D02*
X011336Y003523D01*
X011337Y003525D02*
X011725Y003525D01*
X011723Y003528D02*
X011338Y003528D01*
X011340Y003530D02*
X011722Y003530D01*
X011720Y003533D02*
X011341Y003533D01*
X011343Y003535D02*
X011719Y003535D01*
X011717Y003538D02*
X011344Y003538D01*
X011346Y003540D02*
X011716Y003540D01*
X011714Y003543D02*
X011347Y003543D01*
X011349Y003545D02*
X011713Y003545D01*
X011711Y003547D02*
X011350Y003547D01*
X011352Y003550D02*
X011710Y003550D01*
X011708Y003552D02*
X011353Y003552D01*
X011355Y003555D02*
X011707Y003555D01*
X011705Y003557D02*
X011356Y003557D01*
X011358Y003560D02*
X011703Y003560D01*
X011702Y003562D02*
X011360Y003562D01*
X011361Y003564D02*
X011700Y003564D01*
X011699Y003567D02*
X011665Y003601D01*
X011397Y003601D01*
X011363Y003567D01*
X011365Y003569D02*
X011697Y003569D01*
X011694Y003572D02*
X011367Y003572D01*
X011370Y003574D02*
X011692Y003574D01*
X011689Y003577D02*
X011372Y003577D01*
X011375Y003579D02*
X011687Y003579D01*
X011684Y003582D02*
X011377Y003582D01*
X011380Y003584D02*
X011682Y003584D01*
X011679Y003586D02*
X011382Y003586D01*
X011384Y003589D02*
X011677Y003589D01*
X011675Y003591D02*
X011387Y003591D01*
X011389Y003594D02*
X011672Y003594D01*
X011670Y003596D02*
X011392Y003596D01*
X011394Y003599D02*
X011667Y003599D01*
X011665Y003601D02*
X011624Y003627D01*
X011579Y003643D01*
X011579Y003642D02*
X011482Y003642D01*
X011483Y003643D02*
X011437Y003627D01*
X011397Y003601D01*
X011400Y003603D02*
X011661Y003603D01*
X011657Y003606D02*
X011404Y003606D01*
X011408Y003608D02*
X011653Y003608D01*
X011649Y003611D02*
X011412Y003611D01*
X011416Y003613D02*
X011646Y003613D01*
X011642Y003616D02*
X011420Y003616D01*
X011424Y003618D02*
X011638Y003618D01*
X011634Y003621D02*
X011428Y003621D01*
X011431Y003623D02*
X011630Y003623D01*
X011626Y003625D02*
X011435Y003625D01*
X011440Y003628D02*
X011621Y003628D01*
X011614Y003630D02*
X011447Y003630D01*
X011454Y003633D02*
X011607Y003633D01*
X011600Y003635D02*
X011461Y003635D01*
X011468Y003638D02*
X011593Y003638D01*
X011586Y003640D02*
X011475Y003640D01*
X011483Y003643D02*
X011531Y003648D01*
X011579Y003643D01*
X011559Y003645D02*
X011503Y003645D01*
X011524Y003647D02*
X011537Y003647D01*
X011746Y003313D02*
X011316Y003313D01*
X011316Y003311D02*
X011746Y003311D01*
X011746Y003309D02*
X011316Y003309D01*
X011316Y003306D02*
X011746Y003306D01*
X011746Y003304D02*
X011316Y003304D01*
X011316Y003301D02*
X011746Y003301D01*
X011746Y003299D02*
X011316Y003299D01*
X011316Y003296D02*
X011746Y003296D01*
X011746Y003294D02*
X011316Y003294D01*
X011316Y003291D02*
X011746Y003291D01*
X011746Y003289D02*
X011316Y003289D01*
X011316Y003287D02*
X011746Y003287D01*
X011746Y003284D02*
X011316Y003284D01*
X011316Y003282D02*
X011746Y003282D01*
X011746Y003279D02*
X011316Y003279D01*
X011316Y003277D02*
X011746Y003277D01*
X011746Y003274D02*
X011316Y003274D01*
X011316Y003272D02*
X011746Y003272D01*
X011746Y003270D02*
X011316Y003270D01*
X011316Y003267D02*
X011746Y003267D01*
X011746Y003265D02*
X011316Y003265D01*
X011316Y003262D02*
X011746Y003262D01*
X011746Y003260D02*
X011316Y003260D01*
X011316Y003257D02*
X011746Y003257D01*
X011746Y003255D02*
X011316Y003255D01*
X011316Y003253D02*
X011746Y003253D01*
X011746Y003250D02*
X011316Y003250D01*
X011316Y003248D02*
X011746Y003248D01*
X011746Y003245D02*
X011316Y003245D01*
X011316Y003243D02*
X011746Y003243D01*
X011746Y003240D02*
X011316Y003240D01*
X011316Y003238D02*
X011746Y003238D01*
X011746Y003235D02*
X011316Y003235D01*
X011316Y003233D02*
X011746Y003233D01*
X011746Y003231D02*
X011316Y003231D01*
X011316Y003228D02*
X011746Y003228D01*
X011746Y003226D02*
X011316Y003226D01*
X011316Y003223D02*
X011746Y003223D01*
X011746Y003221D02*
X011316Y003221D01*
X011316Y003218D02*
X011746Y003218D01*
X011746Y003216D02*
X011316Y003216D01*
X011316Y003214D02*
X011746Y003214D01*
X011746Y003211D02*
X011316Y003211D01*
X011316Y003209D02*
X011746Y003209D01*
X011746Y003206D02*
X011316Y003206D01*
X011316Y003204D02*
X011746Y003204D01*
X011746Y003201D02*
X011316Y003201D01*
X011316Y003199D02*
X011746Y003199D01*
X011745Y003196D02*
X011316Y003196D01*
X011316Y003194D02*
X011745Y003194D01*
X011745Y003192D02*
X011316Y003192D01*
X011317Y003189D02*
X011745Y003189D01*
X011744Y003187D02*
X011317Y003187D01*
X011317Y003184D02*
X011744Y003184D01*
X011744Y003182D02*
X011318Y003182D01*
X011318Y003179D02*
X011744Y003179D01*
X011743Y003177D02*
X011318Y003177D01*
X011318Y003175D02*
X011743Y003175D01*
X011743Y003172D02*
X011319Y003172D01*
X011319Y003170D02*
X011742Y003170D01*
X011742Y003167D02*
X011319Y003167D01*
X011319Y003165D02*
X011742Y003165D01*
X011742Y003162D02*
X011320Y003162D01*
X011320Y003160D02*
X011741Y003160D01*
X011741Y003157D02*
X011320Y003157D01*
X011321Y003155D02*
X011741Y003155D01*
X011741Y003153D02*
X011321Y003153D01*
X011321Y003150D02*
X011740Y003150D01*
X011740Y003148D02*
X011322Y003148D01*
X011323Y003145D02*
X011739Y003145D01*
X011738Y003143D02*
X011323Y003143D01*
X011324Y003140D02*
X011737Y003140D01*
X011736Y003138D02*
X011325Y003138D01*
X011326Y003136D02*
X011735Y003136D01*
X011735Y003133D02*
X011327Y003133D01*
X011328Y003131D02*
X011734Y003131D01*
X011733Y003128D02*
X011329Y003128D01*
X011329Y003126D02*
X011732Y003126D01*
X011731Y003123D02*
X011330Y003123D01*
X011331Y003121D02*
X011730Y003121D01*
X011729Y003118D02*
X011332Y003118D01*
X011333Y003116D02*
X011729Y003116D01*
X011728Y003114D02*
X011334Y003114D01*
X011335Y003111D02*
X011727Y003111D01*
X011726Y003109D02*
X011335Y003109D01*
X011336Y003106D02*
X011725Y003106D01*
X011724Y003104D02*
X011699Y003063D01*
X011665Y003029D01*
X011624Y003003D01*
X011579Y002988D01*
X011531Y002982D01*
X011483Y002988D01*
X011437Y003003D01*
X011397Y003029D01*
X011363Y003063D01*
X011337Y003104D01*
X011339Y003101D02*
X011723Y003101D01*
X011721Y003099D02*
X011340Y003099D01*
X011342Y003097D02*
X011720Y003097D01*
X011718Y003094D02*
X011343Y003094D01*
X011345Y003092D02*
X011717Y003092D01*
X011715Y003089D02*
X011346Y003089D01*
X011348Y003087D02*
X011714Y003087D01*
X011712Y003084D02*
X011349Y003084D01*
X011351Y003082D02*
X011711Y003082D01*
X011709Y003079D02*
X011352Y003079D01*
X011354Y003077D02*
X011707Y003077D01*
X011706Y003075D02*
X011355Y003075D01*
X011357Y003072D02*
X011704Y003072D01*
X011703Y003070D02*
X011359Y003070D01*
X011360Y003067D02*
X011701Y003067D01*
X011700Y003065D02*
X011362Y003065D01*
X011363Y003062D02*
X011698Y003062D01*
X011696Y003060D02*
X011366Y003060D01*
X011368Y003058D02*
X011693Y003058D01*
X011691Y003055D02*
X011371Y003055D01*
X011373Y003053D02*
X011688Y003053D01*
X011686Y003050D02*
X011376Y003050D01*
X011378Y003048D02*
X011683Y003048D01*
X011681Y003045D02*
X011380Y003045D01*
X011383Y003043D02*
X011679Y003043D01*
X011676Y003040D02*
X011385Y003040D01*
X011388Y003038D02*
X011674Y003038D01*
X011671Y003036D02*
X011390Y003036D01*
X011393Y003033D02*
X011669Y003033D01*
X011666Y003031D02*
X011395Y003031D01*
X011398Y003028D02*
X011663Y003028D01*
X011660Y003026D02*
X011402Y003026D01*
X011406Y003023D02*
X011656Y003023D01*
X011652Y003021D02*
X011410Y003021D01*
X011413Y003019D02*
X011648Y003019D01*
X011644Y003016D02*
X011417Y003016D01*
X011421Y003014D02*
X011640Y003014D01*
X011636Y003011D02*
X011425Y003011D01*
X011429Y003009D02*
X011632Y003009D01*
X011629Y003006D02*
X011433Y003006D01*
X011437Y003004D02*
X011625Y003004D01*
X011618Y003001D02*
X011443Y003001D01*
X011450Y002999D02*
X011611Y002999D01*
X011604Y002997D02*
X011457Y002997D01*
X011464Y002994D02*
X011597Y002994D01*
X011590Y002992D02*
X011471Y002992D01*
X011478Y002989D02*
X011584Y002989D01*
X011572Y002987D02*
X011489Y002987D01*
X011511Y002984D02*
X011551Y002984D01*
X011531Y004478D02*
X011579Y004484D01*
X011624Y004499D01*
X011665Y004525D01*
X011699Y004559D01*
X011724Y004600D01*
X011740Y004645D01*
X011746Y004693D01*
X011746Y004929D01*
X011740Y004977D01*
X011724Y005022D01*
X011337Y005022D01*
X011321Y004977D01*
X011316Y004929D01*
X011316Y004693D01*
X011746Y004693D01*
X011746Y004695D02*
X011316Y004695D01*
X011316Y004693D02*
X011321Y004645D01*
X011337Y004600D01*
X011363Y004559D01*
X011698Y004559D01*
X011700Y004561D02*
X011361Y004561D01*
X011363Y004559D02*
X011397Y004525D01*
X011437Y004499D01*
X011483Y004484D01*
X011531Y004478D01*
X011529Y004478D02*
X011533Y004478D01*
X011554Y004481D02*
X011507Y004481D01*
X011485Y004483D02*
X011576Y004483D01*
X011585Y004486D02*
X011477Y004486D01*
X011470Y004488D02*
X011592Y004488D01*
X011599Y004491D02*
X011463Y004491D01*
X011456Y004493D02*
X011606Y004493D01*
X011613Y004496D02*
X011449Y004496D01*
X011442Y004498D02*
X011620Y004498D01*
X011625Y004500D02*
X011436Y004500D01*
X011432Y004503D02*
X011629Y004503D01*
X011633Y004505D02*
X011428Y004505D01*
X011424Y004508D02*
X011637Y004508D01*
X011641Y004510D02*
X011421Y004510D01*
X011417Y004513D02*
X011645Y004513D01*
X011649Y004515D02*
X011413Y004515D01*
X011409Y004517D02*
X011653Y004517D01*
X011656Y004520D02*
X011405Y004520D01*
X011401Y004522D02*
X011660Y004522D01*
X011664Y004525D02*
X011397Y004525D01*
X011395Y004527D02*
X011667Y004527D01*
X011669Y004530D02*
X011392Y004530D01*
X011390Y004532D02*
X011672Y004532D01*
X011674Y004534D02*
X011387Y004534D01*
X011385Y004537D02*
X011677Y004537D01*
X011679Y004539D02*
X011382Y004539D01*
X011380Y004542D02*
X011681Y004542D01*
X011684Y004544D02*
X011378Y004544D01*
X011375Y004547D02*
X011686Y004547D01*
X011689Y004549D02*
X011373Y004549D01*
X011370Y004552D02*
X011691Y004552D01*
X011694Y004554D02*
X011368Y004554D01*
X011365Y004556D02*
X011696Y004556D01*
X011702Y004564D02*
X011360Y004564D01*
X011358Y004566D02*
X011703Y004566D01*
X011705Y004569D02*
X011357Y004569D01*
X011355Y004571D02*
X011706Y004571D01*
X011708Y004573D02*
X011354Y004573D01*
X011352Y004576D02*
X011709Y004576D01*
X011711Y004578D02*
X011351Y004578D01*
X011349Y004581D02*
X011712Y004581D01*
X011714Y004583D02*
X011348Y004583D01*
X011346Y004586D02*
X011715Y004586D01*
X011717Y004588D02*
X011344Y004588D01*
X011343Y004591D02*
X011718Y004591D01*
X011720Y004593D02*
X011341Y004593D01*
X011340Y004595D02*
X011722Y004595D01*
X011723Y004598D02*
X011338Y004598D01*
X011337Y004600D02*
X011724Y004600D01*
X011725Y004603D02*
X011336Y004603D01*
X011335Y004605D02*
X011726Y004605D01*
X011727Y004608D02*
X011334Y004608D01*
X011334Y004610D02*
X011728Y004610D01*
X011729Y004612D02*
X011333Y004612D01*
X011332Y004615D02*
X011730Y004615D01*
X011730Y004617D02*
X011331Y004617D01*
X011330Y004620D02*
X011731Y004620D01*
X011732Y004622D02*
X011329Y004622D01*
X011328Y004625D02*
X011733Y004625D01*
X011734Y004627D02*
X011328Y004627D01*
X011327Y004630D02*
X011735Y004630D01*
X011736Y004632D02*
X011326Y004632D01*
X011325Y004634D02*
X011736Y004634D01*
X011737Y004637D02*
X011324Y004637D01*
X011323Y004639D02*
X011738Y004639D01*
X011739Y004642D02*
X011322Y004642D01*
X011322Y004644D02*
X011740Y004644D01*
X011740Y004647D02*
X011321Y004647D01*
X011321Y004649D02*
X011741Y004649D01*
X011741Y004651D02*
X011321Y004651D01*
X011320Y004654D02*
X011741Y004654D01*
X011741Y004656D02*
X011320Y004656D01*
X011320Y004659D02*
X011742Y004659D01*
X011742Y004661D02*
X011319Y004661D01*
X011319Y004664D02*
X011742Y004664D01*
X011743Y004666D02*
X011319Y004666D01*
X011319Y004669D02*
X011743Y004669D01*
X011743Y004671D02*
X011318Y004671D01*
X011318Y004673D02*
X011743Y004673D01*
X011744Y004676D02*
X011318Y004676D01*
X011318Y004678D02*
X011744Y004678D01*
X011744Y004681D02*
X011317Y004681D01*
X011317Y004683D02*
X011744Y004683D01*
X011745Y004686D02*
X011317Y004686D01*
X011316Y004688D02*
X011745Y004688D01*
X011745Y004690D02*
X011316Y004690D01*
X011316Y004698D02*
X011746Y004698D01*
X011746Y004700D02*
X011316Y004700D01*
X011316Y004703D02*
X011746Y004703D01*
X011746Y004705D02*
X011316Y004705D01*
X011316Y004708D02*
X011746Y004708D01*
X011746Y004710D02*
X011316Y004710D01*
X011316Y004712D02*
X011746Y004712D01*
X011746Y004715D02*
X011316Y004715D01*
X011316Y004717D02*
X011746Y004717D01*
X011746Y004720D02*
X011316Y004720D01*
X011316Y004722D02*
X011746Y004722D01*
X011746Y004725D02*
X011316Y004725D01*
X011316Y004727D02*
X011746Y004727D01*
X011746Y004729D02*
X011316Y004729D01*
X011316Y004732D02*
X011746Y004732D01*
X011746Y004734D02*
X011316Y004734D01*
X011316Y004737D02*
X011746Y004737D01*
X011746Y004739D02*
X011316Y004739D01*
X011316Y004742D02*
X011746Y004742D01*
X011746Y004744D02*
X011316Y004744D01*
X011316Y004747D02*
X011746Y004747D01*
X011746Y004749D02*
X011316Y004749D01*
X011316Y004751D02*
X011746Y004751D01*
X011746Y004754D02*
X011316Y004754D01*
X011316Y004756D02*
X011746Y004756D01*
X011746Y004759D02*
X011316Y004759D01*
X011316Y004761D02*
X011746Y004761D01*
X011746Y004764D02*
X011316Y004764D01*
X011316Y004766D02*
X011746Y004766D01*
X011746Y004768D02*
X011316Y004768D01*
X011316Y004771D02*
X011746Y004771D01*
X011746Y004773D02*
X011316Y004773D01*
X011316Y004776D02*
X011746Y004776D01*
X011746Y004778D02*
X011316Y004778D01*
X011316Y004781D02*
X011746Y004781D01*
X011746Y004783D02*
X011316Y004783D01*
X011316Y004786D02*
X011746Y004786D01*
X011746Y004788D02*
X011316Y004788D01*
X011316Y004790D02*
X011746Y004790D01*
X011746Y004793D02*
X011316Y004793D01*
X011316Y004795D02*
X011746Y004795D01*
X011746Y004798D02*
X011316Y004798D01*
X011316Y004800D02*
X011746Y004800D01*
X011746Y004803D02*
X011316Y004803D01*
X011316Y004805D02*
X011746Y004805D01*
X011746Y004807D02*
X011316Y004807D01*
X011316Y004810D02*
X011746Y004810D01*
X011746Y004812D02*
X011316Y004812D01*
X011316Y004815D02*
X011746Y004815D01*
X011746Y004817D02*
X011316Y004817D01*
X011316Y004820D02*
X011746Y004820D01*
X011746Y004822D02*
X011316Y004822D01*
X011316Y004825D02*
X011746Y004825D01*
X011746Y004827D02*
X011316Y004827D01*
X011316Y004829D02*
X011746Y004829D01*
X011746Y004832D02*
X011316Y004832D01*
X011316Y004834D02*
X011746Y004834D01*
X011746Y004837D02*
X011316Y004837D01*
X011316Y004839D02*
X011746Y004839D01*
X011746Y004842D02*
X011316Y004842D01*
X011316Y004844D02*
X011746Y004844D01*
X011746Y004846D02*
X011316Y004846D01*
X011316Y004849D02*
X011746Y004849D01*
X011746Y004851D02*
X011316Y004851D01*
X011316Y004854D02*
X011746Y004854D01*
X011746Y004856D02*
X011316Y004856D01*
X011316Y004859D02*
X011746Y004859D01*
X011746Y004861D02*
X011316Y004861D01*
X011316Y004864D02*
X011746Y004864D01*
X011746Y004866D02*
X011316Y004866D01*
X011316Y004868D02*
X011746Y004868D01*
X011746Y004871D02*
X011316Y004871D01*
X011316Y004873D02*
X011746Y004873D01*
X011746Y004876D02*
X011316Y004876D01*
X011316Y004878D02*
X011746Y004878D01*
X011746Y004881D02*
X011316Y004881D01*
X011316Y004883D02*
X011746Y004883D01*
X011746Y004885D02*
X011316Y004885D01*
X011316Y004888D02*
X011746Y004888D01*
X011746Y004890D02*
X011316Y004890D01*
X011316Y004893D02*
X011746Y004893D01*
X011746Y004895D02*
X011316Y004895D01*
X011316Y004898D02*
X011746Y004898D01*
X011746Y004900D02*
X011316Y004900D01*
X011316Y004903D02*
X011746Y004903D01*
X011746Y004905D02*
X011316Y004905D01*
X011316Y004907D02*
X011746Y004907D01*
X011746Y004910D02*
X011316Y004910D01*
X011316Y004912D02*
X011746Y004912D01*
X011746Y004915D02*
X011316Y004915D01*
X011316Y004917D02*
X011746Y004917D01*
X011746Y004920D02*
X011316Y004920D01*
X011316Y004922D02*
X011746Y004922D01*
X011746Y004924D02*
X011316Y004924D01*
X011316Y004927D02*
X011746Y004927D01*
X011746Y004929D02*
X011316Y004929D01*
X011316Y004932D02*
X011745Y004932D01*
X011745Y004934D02*
X011316Y004934D01*
X011317Y004937D02*
X011745Y004937D01*
X011744Y004939D02*
X011317Y004939D01*
X011317Y004942D02*
X011744Y004942D01*
X011744Y004944D02*
X011318Y004944D01*
X011318Y004946D02*
X011744Y004946D01*
X011743Y004949D02*
X011318Y004949D01*
X011318Y004951D02*
X011743Y004951D01*
X011743Y004954D02*
X011319Y004954D01*
X011319Y004956D02*
X011743Y004956D01*
X011742Y004959D02*
X011319Y004959D01*
X011319Y004961D02*
X011742Y004961D01*
X011742Y004963D02*
X011320Y004963D01*
X011320Y004966D02*
X011741Y004966D01*
X011741Y004968D02*
X011320Y004968D01*
X011321Y004971D02*
X011741Y004971D01*
X011741Y004973D02*
X011321Y004973D01*
X011321Y004976D02*
X011740Y004976D01*
X011740Y004978D02*
X011322Y004978D01*
X011322Y004981D02*
X011739Y004981D01*
X011738Y004983D02*
X011323Y004983D01*
X011324Y004985D02*
X011737Y004985D01*
X011736Y004988D02*
X011325Y004988D01*
X011326Y004990D02*
X011736Y004990D01*
X011735Y004993D02*
X011327Y004993D01*
X011328Y004995D02*
X011734Y004995D01*
X011733Y004998D02*
X011328Y004998D01*
X011329Y005000D02*
X011732Y005000D01*
X011731Y005002D02*
X011330Y005002D01*
X011331Y005005D02*
X011730Y005005D01*
X011730Y005007D02*
X011332Y005007D01*
X011333Y005010D02*
X011729Y005010D01*
X011728Y005012D02*
X011334Y005012D01*
X011334Y005015D02*
X011727Y005015D01*
X011726Y005017D02*
X011335Y005017D01*
X011336Y005020D02*
X011725Y005020D01*
X011724Y005022D02*
X011699Y005063D01*
X011665Y005097D01*
X011624Y005123D01*
X011579Y005139D01*
X011531Y005144D01*
X011483Y005139D01*
X011437Y005123D01*
X011397Y005097D01*
X011363Y005063D01*
X011337Y005022D01*
X011338Y005024D02*
X011723Y005024D01*
X011722Y005027D02*
X011340Y005027D01*
X011341Y005029D02*
X011720Y005029D01*
X011719Y005032D02*
X011343Y005032D01*
X011344Y005034D02*
X011717Y005034D01*
X011715Y005037D02*
X011346Y005037D01*
X011348Y005039D02*
X011714Y005039D01*
X011712Y005041D02*
X011349Y005041D01*
X011351Y005044D02*
X011711Y005044D01*
X011709Y005046D02*
X011352Y005046D01*
X011354Y005049D02*
X011708Y005049D01*
X011706Y005051D02*
X011355Y005051D01*
X011357Y005054D02*
X011705Y005054D01*
X011703Y005056D02*
X011358Y005056D01*
X011360Y005059D02*
X011702Y005059D01*
X011700Y005061D02*
X011361Y005061D01*
X011363Y005063D02*
X011699Y005063D01*
X011696Y005066D02*
X011365Y005066D01*
X011368Y005068D02*
X011694Y005068D01*
X011691Y005071D02*
X011370Y005071D01*
X011373Y005073D02*
X011689Y005073D01*
X011686Y005076D02*
X011375Y005076D01*
X011378Y005078D02*
X011684Y005078D01*
X011681Y005080D02*
X011380Y005080D01*
X011382Y005083D02*
X011679Y005083D01*
X011677Y005085D02*
X011385Y005085D01*
X011387Y005088D02*
X011674Y005088D01*
X011672Y005090D02*
X011390Y005090D01*
X011392Y005093D02*
X011669Y005093D01*
X011667Y005095D02*
X011395Y005095D01*
X011397Y005098D02*
X011664Y005098D01*
X011660Y005100D02*
X011401Y005100D01*
X011405Y005102D02*
X011657Y005102D01*
X011653Y005105D02*
X011409Y005105D01*
X011413Y005107D02*
X011649Y005107D01*
X011645Y005110D02*
X011417Y005110D01*
X011420Y005112D02*
X011641Y005112D01*
X011637Y005115D02*
X011424Y005115D01*
X011428Y005117D02*
X011633Y005117D01*
X011629Y005119D02*
X011432Y005119D01*
X011436Y005122D02*
X011625Y005122D01*
X011620Y005124D02*
X011442Y005124D01*
X011449Y005127D02*
X011613Y005127D01*
X011606Y005129D02*
X011456Y005129D01*
X011463Y005132D02*
X011599Y005132D01*
X011592Y005134D02*
X011470Y005134D01*
X011476Y005137D02*
X011585Y005137D01*
X011577Y005139D02*
X011485Y005139D01*
X011506Y005141D02*
X011555Y005141D01*
X011534Y005144D02*
X011528Y005144D01*
X008345Y004929D02*
X008345Y004693D01*
X008339Y004645D01*
X008323Y004600D01*
X008298Y004559D01*
X008264Y004525D01*
X008223Y004499D01*
X008178Y004484D01*
X008130Y004478D01*
X008082Y004484D01*
X008037Y004499D01*
X007996Y004525D01*
X007962Y004559D01*
X007936Y004600D01*
X008324Y004600D01*
X008322Y004598D02*
X007938Y004598D01*
X007936Y004600D02*
X007920Y004645D01*
X007915Y004693D01*
X007915Y004929D01*
X007920Y004977D01*
X007936Y005022D01*
X008324Y005022D01*
X008323Y005022D02*
X008298Y005063D01*
X008264Y005097D01*
X008223Y005123D01*
X008178Y005139D01*
X008130Y005144D01*
X008082Y005139D01*
X008037Y005123D01*
X007996Y005097D01*
X007962Y005063D01*
X007936Y005022D01*
X007935Y005020D02*
X008325Y005020D01*
X008323Y005022D02*
X008339Y004977D01*
X008345Y004929D01*
X007915Y004929D01*
X007915Y004927D02*
X008345Y004927D01*
X008345Y004924D02*
X007915Y004924D01*
X007915Y004922D02*
X008345Y004922D01*
X008345Y004920D02*
X007915Y004920D01*
X007915Y004917D02*
X008345Y004917D01*
X008345Y004915D02*
X007915Y004915D01*
X007915Y004912D02*
X008345Y004912D01*
X008345Y004910D02*
X007915Y004910D01*
X007915Y004907D02*
X008345Y004907D01*
X008345Y004905D02*
X007915Y004905D01*
X007915Y004903D02*
X008345Y004903D01*
X008345Y004900D02*
X007915Y004900D01*
X007915Y004898D02*
X008345Y004898D01*
X008345Y004895D02*
X007915Y004895D01*
X007915Y004893D02*
X008345Y004893D01*
X008345Y004890D02*
X007915Y004890D01*
X007915Y004888D02*
X008345Y004888D01*
X008345Y004885D02*
X007915Y004885D01*
X007915Y004883D02*
X008345Y004883D01*
X008345Y004881D02*
X007915Y004881D01*
X007915Y004878D02*
X008345Y004878D01*
X008345Y004876D02*
X007915Y004876D01*
X007915Y004873D02*
X008345Y004873D01*
X008345Y004871D02*
X007915Y004871D01*
X007915Y004868D02*
X008345Y004868D01*
X008345Y004866D02*
X007915Y004866D01*
X007915Y004864D02*
X008345Y004864D01*
X008345Y004861D02*
X007915Y004861D01*
X007915Y004859D02*
X008345Y004859D01*
X008345Y004856D02*
X007915Y004856D01*
X007915Y004854D02*
X008345Y004854D01*
X008345Y004851D02*
X007915Y004851D01*
X007915Y004849D02*
X008345Y004849D01*
X008345Y004846D02*
X007915Y004846D01*
X007915Y004844D02*
X008345Y004844D01*
X008345Y004842D02*
X007915Y004842D01*
X007915Y004839D02*
X008345Y004839D01*
X008345Y004837D02*
X007915Y004837D01*
X007915Y004834D02*
X008345Y004834D01*
X008345Y004832D02*
X007915Y004832D01*
X007915Y004829D02*
X008345Y004829D01*
X008345Y004827D02*
X007915Y004827D01*
X007915Y004825D02*
X008345Y004825D01*
X008345Y004822D02*
X007915Y004822D01*
X007915Y004820D02*
X008345Y004820D01*
X008345Y004817D02*
X007915Y004817D01*
X007915Y004815D02*
X008345Y004815D01*
X008345Y004812D02*
X007915Y004812D01*
X007915Y004810D02*
X008345Y004810D01*
X008345Y004807D02*
X007915Y004807D01*
X007915Y004805D02*
X008345Y004805D01*
X008345Y004803D02*
X007915Y004803D01*
X007915Y004800D02*
X008345Y004800D01*
X008345Y004798D02*
X007915Y004798D01*
X007915Y004795D02*
X008345Y004795D01*
X008345Y004793D02*
X007915Y004793D01*
X007915Y004790D02*
X008345Y004790D01*
X008345Y004788D02*
X007915Y004788D01*
X007915Y004786D02*
X008345Y004786D01*
X008345Y004783D02*
X007915Y004783D01*
X007915Y004781D02*
X008345Y004781D01*
X008345Y004778D02*
X007915Y004778D01*
X007915Y004776D02*
X008345Y004776D01*
X008345Y004773D02*
X007915Y004773D01*
X007915Y004771D02*
X008345Y004771D01*
X008345Y004768D02*
X007915Y004768D01*
X007915Y004766D02*
X008345Y004766D01*
X008345Y004764D02*
X007915Y004764D01*
X007915Y004761D02*
X008345Y004761D01*
X008345Y004759D02*
X007915Y004759D01*
X007915Y004756D02*
X008345Y004756D01*
X008345Y004754D02*
X007915Y004754D01*
X007915Y004751D02*
X008345Y004751D01*
X008345Y004749D02*
X007915Y004749D01*
X007915Y004747D02*
X008345Y004747D01*
X008345Y004744D02*
X007915Y004744D01*
X007915Y004742D02*
X008345Y004742D01*
X008345Y004739D02*
X007915Y004739D01*
X007915Y004737D02*
X008345Y004737D01*
X008345Y004734D02*
X007915Y004734D01*
X007915Y004732D02*
X008345Y004732D01*
X008345Y004729D02*
X007915Y004729D01*
X007915Y004727D02*
X008345Y004727D01*
X008345Y004725D02*
X007915Y004725D01*
X007915Y004722D02*
X008345Y004722D01*
X008345Y004720D02*
X007915Y004720D01*
X007915Y004717D02*
X008345Y004717D01*
X008345Y004715D02*
X007915Y004715D01*
X007915Y004712D02*
X008345Y004712D01*
X008345Y004710D02*
X007915Y004710D01*
X007915Y004708D02*
X008345Y004708D01*
X008345Y004705D02*
X007915Y004705D01*
X007915Y004703D02*
X008345Y004703D01*
X008345Y004700D02*
X007915Y004700D01*
X007915Y004698D02*
X008345Y004698D01*
X008345Y004695D02*
X007915Y004695D01*
X007915Y004693D02*
X008345Y004693D01*
X008344Y004690D02*
X007915Y004690D01*
X007916Y004688D02*
X008344Y004688D01*
X008344Y004686D02*
X007916Y004686D01*
X007916Y004683D02*
X008344Y004683D01*
X008343Y004681D02*
X007916Y004681D01*
X007917Y004678D02*
X008343Y004678D01*
X008343Y004676D02*
X007917Y004676D01*
X007917Y004673D02*
X008343Y004673D01*
X008342Y004671D02*
X007918Y004671D01*
X007918Y004669D02*
X008342Y004669D01*
X008342Y004666D02*
X007918Y004666D01*
X007918Y004664D02*
X008341Y004664D01*
X008341Y004661D02*
X007919Y004661D01*
X007919Y004659D02*
X008341Y004659D01*
X008341Y004656D02*
X007919Y004656D01*
X007919Y004654D02*
X008340Y004654D01*
X008340Y004651D02*
X007920Y004651D01*
X007920Y004649D02*
X008340Y004649D01*
X008340Y004647D02*
X007920Y004647D01*
X007921Y004644D02*
X008339Y004644D01*
X008338Y004642D02*
X007922Y004642D01*
X007923Y004639D02*
X008337Y004639D01*
X008336Y004637D02*
X007923Y004637D01*
X007924Y004634D02*
X008336Y004634D01*
X008335Y004632D02*
X007925Y004632D01*
X007926Y004630D02*
X008334Y004630D01*
X008333Y004627D02*
X007927Y004627D01*
X007928Y004625D02*
X008332Y004625D01*
X008331Y004622D02*
X007929Y004622D01*
X007929Y004620D02*
X008330Y004620D01*
X008330Y004617D02*
X007930Y004617D01*
X007931Y004615D02*
X008329Y004615D01*
X008328Y004612D02*
X007932Y004612D01*
X007933Y004610D02*
X008327Y004610D01*
X008326Y004608D02*
X007934Y004608D01*
X007934Y004605D02*
X008325Y004605D01*
X008325Y004603D02*
X007935Y004603D01*
X007939Y004595D02*
X008321Y004595D01*
X008319Y004593D02*
X007941Y004593D01*
X007942Y004591D02*
X008318Y004591D01*
X008316Y004588D02*
X007944Y004588D01*
X007945Y004586D02*
X008315Y004586D01*
X008313Y004583D02*
X007947Y004583D01*
X007948Y004581D02*
X008312Y004581D01*
X008310Y004578D02*
X007950Y004578D01*
X007951Y004576D02*
X008308Y004576D01*
X008307Y004573D02*
X007953Y004573D01*
X007954Y004571D02*
X008305Y004571D01*
X008304Y004569D02*
X007956Y004569D01*
X007957Y004566D02*
X008302Y004566D01*
X008301Y004564D02*
X007959Y004564D01*
X007961Y004561D02*
X008299Y004561D01*
X008298Y004559D02*
X007962Y004559D01*
X007965Y004556D02*
X008295Y004556D01*
X008293Y004554D02*
X007967Y004554D01*
X007969Y004552D02*
X008290Y004552D01*
X008288Y004549D02*
X007972Y004549D01*
X007974Y004547D02*
X008285Y004547D01*
X008283Y004544D02*
X007977Y004544D01*
X007979Y004542D02*
X008281Y004542D01*
X008278Y004539D02*
X007982Y004539D01*
X007984Y004537D02*
X008276Y004537D01*
X008273Y004534D02*
X007987Y004534D01*
X007989Y004532D02*
X008271Y004532D01*
X008268Y004530D02*
X007991Y004530D01*
X007994Y004527D02*
X008266Y004527D01*
X008263Y004525D02*
X007996Y004525D01*
X008000Y004522D02*
X008259Y004522D01*
X008256Y004520D02*
X008004Y004520D01*
X008008Y004517D02*
X008252Y004517D01*
X008248Y004515D02*
X008012Y004515D01*
X008016Y004513D02*
X008244Y004513D01*
X008240Y004510D02*
X008020Y004510D01*
X008024Y004508D02*
X008236Y004508D01*
X008232Y004505D02*
X008028Y004505D01*
X008031Y004503D02*
X008228Y004503D01*
X008225Y004500D02*
X008035Y004500D01*
X008041Y004498D02*
X008219Y004498D01*
X008212Y004496D02*
X008048Y004496D01*
X008055Y004493D02*
X008205Y004493D01*
X008198Y004491D02*
X008062Y004491D01*
X008069Y004488D02*
X008191Y004488D01*
X008184Y004486D02*
X008076Y004486D01*
X008085Y004483D02*
X008175Y004483D01*
X008154Y004481D02*
X008106Y004481D01*
X008128Y004478D02*
X008132Y004478D01*
X008344Y004932D02*
X007915Y004932D01*
X007916Y004934D02*
X008344Y004934D01*
X008344Y004937D02*
X007916Y004937D01*
X007916Y004939D02*
X008344Y004939D01*
X008343Y004942D02*
X007916Y004942D01*
X007917Y004944D02*
X008343Y004944D01*
X008343Y004946D02*
X007917Y004946D01*
X007917Y004949D02*
X008343Y004949D01*
X008342Y004951D02*
X007918Y004951D01*
X007918Y004954D02*
X008342Y004954D01*
X008342Y004956D02*
X007918Y004956D01*
X007918Y004959D02*
X008341Y004959D01*
X008341Y004961D02*
X007919Y004961D01*
X007919Y004963D02*
X008341Y004963D01*
X008341Y004966D02*
X007919Y004966D01*
X007919Y004968D02*
X008340Y004968D01*
X008340Y004971D02*
X007920Y004971D01*
X007920Y004973D02*
X008340Y004973D01*
X008340Y004976D02*
X007920Y004976D01*
X007921Y004978D02*
X008339Y004978D01*
X008338Y004981D02*
X007922Y004981D01*
X007923Y004983D02*
X008337Y004983D01*
X008336Y004985D02*
X007923Y004985D01*
X007924Y004988D02*
X008336Y004988D01*
X008335Y004990D02*
X007925Y004990D01*
X007926Y004993D02*
X008334Y004993D01*
X008333Y004995D02*
X007927Y004995D01*
X007928Y004998D02*
X008332Y004998D01*
X008331Y005000D02*
X007928Y005000D01*
X007929Y005002D02*
X008331Y005002D01*
X008330Y005005D02*
X007930Y005005D01*
X007931Y005007D02*
X008329Y005007D01*
X008328Y005010D02*
X007932Y005010D01*
X007933Y005012D02*
X008327Y005012D01*
X008326Y005015D02*
X007934Y005015D01*
X007934Y005017D02*
X008325Y005017D01*
X008322Y005024D02*
X007938Y005024D01*
X007939Y005027D02*
X008321Y005027D01*
X008319Y005029D02*
X007941Y005029D01*
X007942Y005032D02*
X008318Y005032D01*
X008316Y005034D02*
X007944Y005034D01*
X007945Y005037D02*
X008315Y005037D01*
X008313Y005039D02*
X007947Y005039D01*
X007948Y005041D02*
X008312Y005041D01*
X008310Y005044D02*
X007950Y005044D01*
X007951Y005046D02*
X008309Y005046D01*
X008307Y005049D02*
X007953Y005049D01*
X007954Y005051D02*
X008305Y005051D01*
X008304Y005054D02*
X007956Y005054D01*
X007957Y005056D02*
X008302Y005056D01*
X008301Y005059D02*
X007959Y005059D01*
X007961Y005061D02*
X008299Y005061D01*
X008298Y005063D02*
X007962Y005063D01*
X007965Y005066D02*
X008295Y005066D01*
X008293Y005068D02*
X007967Y005068D01*
X007969Y005071D02*
X008290Y005071D01*
X008288Y005073D02*
X007972Y005073D01*
X007974Y005076D02*
X008286Y005076D01*
X008283Y005078D02*
X007977Y005078D01*
X007979Y005080D02*
X008281Y005080D01*
X008278Y005083D02*
X007982Y005083D01*
X007984Y005085D02*
X008276Y005085D01*
X008273Y005088D02*
X007986Y005088D01*
X007989Y005090D02*
X008271Y005090D01*
X008269Y005093D02*
X007991Y005093D01*
X007994Y005095D02*
X008266Y005095D01*
X008263Y005098D02*
X007996Y005098D01*
X008000Y005100D02*
X008260Y005100D01*
X008256Y005102D02*
X008004Y005102D01*
X008008Y005105D02*
X008252Y005105D01*
X008248Y005107D02*
X008012Y005107D01*
X008016Y005110D02*
X008244Y005110D01*
X008240Y005112D02*
X008020Y005112D01*
X008024Y005115D02*
X008236Y005115D01*
X008232Y005117D02*
X008027Y005117D01*
X008031Y005119D02*
X008229Y005119D01*
X008225Y005122D02*
X008035Y005122D01*
X008041Y005124D02*
X008219Y005124D01*
X008212Y005127D02*
X008048Y005127D01*
X008055Y005129D02*
X008205Y005129D01*
X008198Y005132D02*
X008062Y005132D01*
X008069Y005134D02*
X008191Y005134D01*
X008184Y005137D02*
X008076Y005137D01*
X008084Y005139D02*
X008176Y005139D01*
X008154Y005141D02*
X008105Y005141D01*
X008127Y005144D02*
X008133Y005144D01*
X008130Y003648D02*
X008178Y003643D01*
X008223Y003627D01*
X008264Y003601D01*
X007996Y003601D01*
X007962Y003567D01*
X007936Y003526D01*
X007936Y003525D02*
X008324Y003525D01*
X008323Y003526D02*
X008298Y003567D01*
X007962Y003567D01*
X007960Y003564D02*
X008300Y003564D01*
X008301Y003562D02*
X007959Y003562D01*
X007957Y003560D02*
X008303Y003560D01*
X008304Y003557D02*
X007956Y003557D01*
X007954Y003555D02*
X008306Y003555D01*
X008307Y003552D02*
X007953Y003552D01*
X007951Y003550D02*
X008309Y003550D01*
X008310Y003547D02*
X007950Y003547D01*
X007948Y003545D02*
X008312Y003545D01*
X008313Y003543D02*
X007946Y003543D01*
X007945Y003540D02*
X008315Y003540D01*
X008316Y003538D02*
X007943Y003538D01*
X007942Y003535D02*
X008318Y003535D01*
X008320Y003533D02*
X007940Y003533D01*
X007939Y003530D02*
X008321Y003530D01*
X008323Y003528D02*
X007937Y003528D01*
X007936Y003526D02*
X007920Y003481D01*
X007915Y003433D01*
X008345Y003433D01*
X008339Y003481D01*
X008323Y003526D01*
X008325Y003523D02*
X007935Y003523D01*
X007934Y003521D02*
X008326Y003521D01*
X008326Y003518D02*
X007933Y003518D01*
X007933Y003516D02*
X008327Y003516D01*
X008328Y003513D02*
X007932Y003513D01*
X007931Y003511D02*
X008329Y003511D01*
X008330Y003508D02*
X007930Y003508D01*
X007929Y003506D02*
X008331Y003506D01*
X008332Y003504D02*
X007928Y003504D01*
X007927Y003501D02*
X008332Y003501D01*
X008333Y003499D02*
X007927Y003499D01*
X007926Y003496D02*
X008334Y003496D01*
X008335Y003494D02*
X007925Y003494D01*
X007924Y003491D02*
X008336Y003491D01*
X008337Y003489D02*
X007923Y003489D01*
X007922Y003486D02*
X008337Y003486D01*
X008338Y003484D02*
X007922Y003484D01*
X007921Y003482D02*
X008339Y003482D01*
X008340Y003479D02*
X007920Y003479D01*
X007920Y003477D02*
X008340Y003477D01*
X008340Y003474D02*
X007920Y003474D01*
X007919Y003472D02*
X008340Y003472D01*
X008341Y003469D02*
X007919Y003469D01*
X007919Y003467D02*
X008341Y003467D01*
X008341Y003465D02*
X007919Y003465D01*
X007918Y003462D02*
X008342Y003462D01*
X008342Y003460D02*
X007918Y003460D01*
X007918Y003457D02*
X008342Y003457D01*
X008342Y003455D02*
X007918Y003455D01*
X007917Y003452D02*
X008343Y003452D01*
X008343Y003450D02*
X007917Y003450D01*
X007917Y003447D02*
X008343Y003447D01*
X008343Y003445D02*
X007916Y003445D01*
X007916Y003443D02*
X008344Y003443D01*
X008344Y003440D02*
X007916Y003440D01*
X007916Y003438D02*
X008344Y003438D01*
X008345Y003435D02*
X007915Y003435D01*
X007915Y003433D02*
X007915Y003197D01*
X007920Y003149D01*
X007936Y003104D01*
X008324Y003104D01*
X008323Y003104D02*
X008339Y003149D01*
X008345Y003197D01*
X008345Y003433D01*
X008345Y003430D02*
X007915Y003430D01*
X007915Y003428D02*
X008345Y003428D01*
X008345Y003426D02*
X007915Y003426D01*
X007915Y003423D02*
X008345Y003423D01*
X008345Y003421D02*
X007915Y003421D01*
X007915Y003418D02*
X008345Y003418D01*
X008345Y003416D02*
X007915Y003416D01*
X007915Y003413D02*
X008345Y003413D01*
X008345Y003411D02*
X007915Y003411D01*
X007915Y003408D02*
X008345Y003408D01*
X008345Y003406D02*
X007915Y003406D01*
X007915Y003404D02*
X008345Y003404D01*
X008345Y003401D02*
X007915Y003401D01*
X007915Y003399D02*
X008345Y003399D01*
X008345Y003396D02*
X007915Y003396D01*
X007915Y003394D02*
X008345Y003394D01*
X008345Y003391D02*
X007915Y003391D01*
X007915Y003389D02*
X008345Y003389D01*
X008345Y003387D02*
X007915Y003387D01*
X007915Y003384D02*
X008345Y003384D01*
X008345Y003382D02*
X007915Y003382D01*
X007915Y003379D02*
X008345Y003379D01*
X008345Y003377D02*
X007915Y003377D01*
X007915Y003374D02*
X008345Y003374D01*
X008345Y003372D02*
X007915Y003372D01*
X007915Y003369D02*
X008345Y003369D01*
X008345Y003367D02*
X007915Y003367D01*
X007915Y003365D02*
X008345Y003365D01*
X008345Y003362D02*
X007915Y003362D01*
X007915Y003360D02*
X008345Y003360D01*
X008345Y003357D02*
X007915Y003357D01*
X007915Y003355D02*
X008345Y003355D01*
X008345Y003352D02*
X007915Y003352D01*
X007915Y003350D02*
X008345Y003350D01*
X008345Y003348D02*
X007915Y003348D01*
X007915Y003345D02*
X008345Y003345D01*
X008345Y003343D02*
X007915Y003343D01*
X007915Y003340D02*
X008345Y003340D01*
X008345Y003338D02*
X007915Y003338D01*
X007915Y003335D02*
X008345Y003335D01*
X008345Y003333D02*
X007915Y003333D01*
X007915Y003330D02*
X008345Y003330D01*
X008345Y003328D02*
X007915Y003328D01*
X007915Y003326D02*
X008345Y003326D01*
X008345Y003323D02*
X007915Y003323D01*
X007915Y003321D02*
X008345Y003321D01*
X008345Y003318D02*
X007915Y003318D01*
X007915Y003316D02*
X008345Y003316D01*
X008345Y003313D02*
X007915Y003313D01*
X007915Y003311D02*
X008345Y003311D01*
X008345Y003309D02*
X007915Y003309D01*
X007915Y003306D02*
X008345Y003306D01*
X008345Y003304D02*
X007915Y003304D01*
X007915Y003301D02*
X008345Y003301D01*
X008345Y003299D02*
X007915Y003299D01*
X007915Y003296D02*
X008345Y003296D01*
X008345Y003294D02*
X007915Y003294D01*
X007915Y003291D02*
X008345Y003291D01*
X008345Y003289D02*
X007915Y003289D01*
X007915Y003287D02*
X008345Y003287D01*
X008345Y003284D02*
X007915Y003284D01*
X007915Y003282D02*
X008345Y003282D01*
X008345Y003279D02*
X007915Y003279D01*
X007915Y003277D02*
X008345Y003277D01*
X008345Y003274D02*
X007915Y003274D01*
X007915Y003272D02*
X008345Y003272D01*
X008345Y003270D02*
X007915Y003270D01*
X007915Y003267D02*
X008345Y003267D01*
X008345Y003265D02*
X007915Y003265D01*
X007915Y003262D02*
X008345Y003262D01*
X008345Y003260D02*
X007915Y003260D01*
X007915Y003257D02*
X008345Y003257D01*
X008345Y003255D02*
X007915Y003255D01*
X007915Y003253D02*
X008345Y003253D01*
X008345Y003250D02*
X007915Y003250D01*
X007915Y003248D02*
X008345Y003248D01*
X008345Y003245D02*
X007915Y003245D01*
X007915Y003243D02*
X008345Y003243D01*
X008345Y003240D02*
X007915Y003240D01*
X007915Y003238D02*
X008345Y003238D01*
X008345Y003235D02*
X007915Y003235D01*
X007915Y003233D02*
X008345Y003233D01*
X008345Y003231D02*
X007915Y003231D01*
X007915Y003228D02*
X008345Y003228D01*
X008345Y003226D02*
X007915Y003226D01*
X007915Y003223D02*
X008345Y003223D01*
X008345Y003221D02*
X007915Y003221D01*
X007915Y003218D02*
X008345Y003218D01*
X008345Y003216D02*
X007915Y003216D01*
X007915Y003214D02*
X008345Y003214D01*
X008345Y003211D02*
X007915Y003211D01*
X007915Y003209D02*
X008345Y003209D01*
X008345Y003206D02*
X007915Y003206D01*
X007915Y003204D02*
X008345Y003204D01*
X008345Y003201D02*
X007915Y003201D01*
X007915Y003199D02*
X008345Y003199D01*
X008345Y003196D02*
X007915Y003196D01*
X007915Y003194D02*
X008344Y003194D01*
X008344Y003192D02*
X007916Y003192D01*
X007916Y003189D02*
X008344Y003189D01*
X008344Y003187D02*
X007916Y003187D01*
X007917Y003184D02*
X008343Y003184D01*
X008343Y003182D02*
X007917Y003182D01*
X007917Y003179D02*
X008343Y003179D01*
X008343Y003177D02*
X007917Y003177D01*
X007918Y003175D02*
X008342Y003175D01*
X008342Y003172D02*
X007918Y003172D01*
X007918Y003170D02*
X008342Y003170D01*
X008341Y003167D02*
X007918Y003167D01*
X007919Y003165D02*
X008341Y003165D01*
X008341Y003162D02*
X007919Y003162D01*
X007919Y003160D02*
X008341Y003160D01*
X008340Y003157D02*
X007920Y003157D01*
X007920Y003155D02*
X008340Y003155D01*
X008340Y003153D02*
X007920Y003153D01*
X007920Y003150D02*
X008339Y003150D01*
X008339Y003148D02*
X007921Y003148D01*
X007922Y003145D02*
X008338Y003145D01*
X008337Y003143D02*
X007923Y003143D01*
X007924Y003140D02*
X008336Y003140D01*
X008335Y003138D02*
X007924Y003138D01*
X007925Y003136D02*
X008335Y003136D01*
X008334Y003133D02*
X007926Y003133D01*
X007927Y003131D02*
X008333Y003131D01*
X008332Y003128D02*
X007928Y003128D01*
X007929Y003126D02*
X008331Y003126D01*
X008330Y003123D02*
X007930Y003123D01*
X007930Y003121D02*
X008329Y003121D01*
X008329Y003118D02*
X007931Y003118D01*
X007932Y003116D02*
X008328Y003116D01*
X008327Y003114D02*
X007933Y003114D01*
X007934Y003111D02*
X008326Y003111D01*
X008325Y003109D02*
X007935Y003109D01*
X007935Y003106D02*
X008324Y003106D01*
X008323Y003104D02*
X008298Y003063D01*
X008264Y003029D01*
X008223Y003003D01*
X008178Y002988D01*
X008130Y002982D01*
X008082Y002988D01*
X008037Y003003D01*
X007996Y003029D01*
X007962Y003063D01*
X007936Y003104D01*
X007938Y003101D02*
X008322Y003101D01*
X008320Y003099D02*
X007939Y003099D01*
X007941Y003097D02*
X008319Y003097D01*
X008317Y003094D02*
X007942Y003094D01*
X007944Y003092D02*
X008316Y003092D01*
X008314Y003089D02*
X007945Y003089D01*
X007947Y003087D02*
X008313Y003087D01*
X008311Y003084D02*
X007949Y003084D01*
X007950Y003082D02*
X008310Y003082D01*
X008308Y003079D02*
X007952Y003079D01*
X007953Y003077D02*
X008307Y003077D01*
X008305Y003075D02*
X007955Y003075D01*
X007956Y003072D02*
X008304Y003072D01*
X008302Y003070D02*
X007958Y003070D01*
X007959Y003067D02*
X008301Y003067D01*
X008299Y003065D02*
X007961Y003065D01*
X007963Y003062D02*
X008297Y003062D01*
X008295Y003060D02*
X007965Y003060D01*
X007967Y003058D02*
X008292Y003058D01*
X008290Y003055D02*
X007970Y003055D01*
X007972Y003053D02*
X008288Y003053D01*
X008285Y003050D02*
X007975Y003050D01*
X007977Y003048D02*
X008283Y003048D01*
X008280Y003045D02*
X007980Y003045D01*
X007982Y003043D02*
X008278Y003043D01*
X008275Y003040D02*
X007985Y003040D01*
X007987Y003038D02*
X008273Y003038D01*
X008270Y003036D02*
X007989Y003036D01*
X007992Y003033D02*
X008268Y003033D01*
X008266Y003031D02*
X007994Y003031D01*
X007997Y003028D02*
X008263Y003028D01*
X008259Y003026D02*
X008001Y003026D01*
X008005Y003023D02*
X008255Y003023D01*
X008251Y003021D02*
X008009Y003021D01*
X008013Y003019D02*
X008247Y003019D01*
X008243Y003016D02*
X008017Y003016D01*
X008020Y003014D02*
X008239Y003014D01*
X008236Y003011D02*
X008024Y003011D01*
X008028Y003009D02*
X008232Y003009D01*
X008228Y003006D02*
X008032Y003006D01*
X008036Y003004D02*
X008224Y003004D01*
X008218Y003001D02*
X008042Y003001D01*
X008049Y002999D02*
X008211Y002999D01*
X008204Y002997D02*
X008056Y002997D01*
X008063Y002994D02*
X008197Y002994D01*
X008190Y002992D02*
X008070Y002992D01*
X008077Y002989D02*
X008183Y002989D01*
X008172Y002987D02*
X008088Y002987D01*
X008110Y002984D02*
X008150Y002984D01*
X008298Y003567D02*
X008264Y003601D01*
X008266Y003599D02*
X007993Y003599D01*
X007991Y003596D02*
X008269Y003596D01*
X008271Y003594D02*
X007988Y003594D01*
X007986Y003591D02*
X008274Y003591D01*
X008276Y003589D02*
X007984Y003589D01*
X007981Y003586D02*
X008279Y003586D01*
X008281Y003584D02*
X007979Y003584D01*
X007976Y003582D02*
X008284Y003582D01*
X008286Y003579D02*
X007974Y003579D01*
X007971Y003577D02*
X008288Y003577D01*
X008291Y003574D02*
X007969Y003574D01*
X007967Y003572D02*
X008293Y003572D01*
X008296Y003569D02*
X007964Y003569D01*
X007996Y003601D02*
X008037Y003627D01*
X008082Y003643D01*
X008130Y003648D01*
X008136Y003647D02*
X008123Y003647D01*
X008102Y003645D02*
X008158Y003645D01*
X008178Y003642D02*
X008081Y003642D01*
X008075Y003640D02*
X008185Y003640D01*
X008192Y003638D02*
X008068Y003638D01*
X008061Y003635D02*
X008199Y003635D01*
X008206Y003633D02*
X008054Y003633D01*
X008047Y003630D02*
X008213Y003630D01*
X008220Y003628D02*
X008040Y003628D01*
X008034Y003625D02*
X008225Y003625D01*
X008229Y003623D02*
X008031Y003623D01*
X008027Y003621D02*
X008233Y003621D01*
X008237Y003618D02*
X008023Y003618D01*
X008019Y003616D02*
X008241Y003616D01*
X008245Y003613D02*
X008015Y003613D01*
X008011Y003611D02*
X008249Y003611D01*
X008253Y003608D02*
X008007Y003608D01*
X008003Y003606D02*
X008256Y003606D01*
X008260Y003603D02*
X008000Y003603D01*
D14*
X008131Y003675D02*
X008131Y003315D01*
X008171Y003275D01*
X008581Y003275D01*
X009331Y002525D01*
X008381Y002525D02*
X008131Y002776D01*
X008131Y003315D01*
X008131Y004811D01*
X008131Y004526D01*
X008431Y004375D01*
X008181Y003675D02*
X008131Y003675D01*
X009233Y003625D02*
X010430Y003625D01*
X010431Y003625D01*
X010431Y002625D01*
X010331Y002525D01*
X011281Y002525D02*
X011532Y002776D01*
X011531Y002776D01*
X011531Y003315D01*
X011431Y003675D01*
X011232Y004375D02*
X011315Y004430D01*
X011532Y004575D01*
X011531Y004575D01*
X011531Y004811D01*
D15*
X011232Y004375D02*
X008431Y004375D01*
D16*
X008231Y004025D02*
X008231Y003725D01*
X008531Y003725D01*
X008731Y003925D01*
X008281Y003925D01*
X008281Y003775D01*
X008531Y003775D01*
X008531Y003825D01*
X008581Y003875D01*
X008331Y003875D01*
X008281Y003975D02*
X008231Y004025D01*
X008281Y003975D02*
X008881Y003975D01*
X008581Y003675D01*
X008181Y003675D01*
X010731Y003975D02*
X011431Y003975D01*
X011431Y003725D01*
X011081Y003725D01*
X010881Y003925D01*
X011381Y003925D01*
X011381Y003775D01*
X011131Y003775D01*
X011031Y003875D01*
X011331Y003875D01*
X011431Y003675D02*
X011031Y003675D01*
X010731Y003975D01*
D17*
X010430Y003625D03*
X009233Y003625D03*
M02*
