G75*
G70*
%OFA0B0*%
%FSLAX24Y24*%
%IPPOS*%
%LPD*%
%AMOC8*
5,1,8,0,0,1.08239X$1,22.5*
%
%ADD10C,0.0050*%
%ADD11R,0.0197X0.0220*%
%ADD12C,0.0787*%
%ADD13R,0.0315X0.0472*%
%ADD14R,0.0250X0.0472*%
%ADD15C,0.0277*%
%ADD16C,0.0004*%
%ADD17C,0.0200*%
%ADD18C,0.0100*%
%ADD19C,0.0340*%
D10*
X007481Y003525D02*
X007831Y003175D01*
X007831Y002725D01*
X007833Y002702D01*
X007838Y002679D01*
X007847Y002657D01*
X007860Y002637D01*
X007875Y002619D01*
X007893Y002604D01*
X007913Y002591D01*
X007935Y002582D01*
X007958Y002577D01*
X007981Y002575D01*
X011681Y002575D01*
X011704Y002577D01*
X011727Y002582D01*
X011749Y002591D01*
X011769Y002604D01*
X011787Y002619D01*
X011802Y002637D01*
X011815Y002657D01*
X011824Y002679D01*
X011829Y002702D01*
X011831Y002725D01*
X011831Y003175D01*
X012181Y003525D01*
X012181Y004975D01*
X012182Y004974D02*
X012181Y005002D01*
X012178Y005030D01*
X012170Y005057D01*
X012159Y005082D01*
X012145Y005107D01*
X012128Y005129D01*
X012108Y005148D01*
X012086Y005165D01*
X012062Y005179D01*
X012036Y005189D01*
X012009Y005196D01*
X011982Y005200D01*
X011981Y005200D02*
X007681Y005200D01*
X007654Y005196D01*
X007627Y005189D01*
X007601Y005179D01*
X007577Y005165D01*
X007555Y005148D01*
X007535Y005129D01*
X007518Y005107D01*
X007504Y005082D01*
X007493Y005057D01*
X007485Y005030D01*
X007482Y005002D01*
X007481Y004974D01*
X007481Y004975D02*
X007481Y003525D01*
D11*
X007706Y003840D03*
X007706Y004287D03*
X011957Y004287D03*
X011957Y003840D03*
D12*
X011281Y002525D03*
X010331Y002525D03*
X009331Y002525D03*
X008381Y002525D03*
D13*
X008749Y003263D03*
X009233Y003263D03*
X010430Y003263D03*
X010914Y003263D03*
D14*
X010028Y003263D03*
X009635Y003263D03*
D15*
X008131Y003315D03*
X008131Y004811D03*
X011531Y004811D03*
X011531Y003315D03*
D16*
X011317Y003316D02*
X011747Y003316D01*
X011747Y003318D02*
X011317Y003318D01*
X011317Y003321D02*
X011747Y003321D01*
X011747Y003323D02*
X011317Y003323D01*
X011317Y003326D02*
X011747Y003326D01*
X011747Y003328D02*
X011317Y003328D01*
X011317Y003330D02*
X011747Y003330D01*
X011747Y003333D02*
X011317Y003333D01*
X011317Y003335D02*
X011747Y003335D01*
X011747Y003338D02*
X011317Y003338D01*
X011317Y003340D02*
X011747Y003340D01*
X011747Y003343D02*
X011317Y003343D01*
X011317Y003345D02*
X011747Y003345D01*
X011747Y003348D02*
X011317Y003348D01*
X011317Y003350D02*
X011747Y003350D01*
X011747Y003352D02*
X011317Y003352D01*
X011317Y003355D02*
X011747Y003355D01*
X011747Y003357D02*
X011317Y003357D01*
X011317Y003360D02*
X011747Y003360D01*
X011747Y003362D02*
X011317Y003362D01*
X011317Y003365D02*
X011747Y003365D01*
X011747Y003367D02*
X011317Y003367D01*
X011317Y003369D02*
X011747Y003369D01*
X011747Y003372D02*
X011317Y003372D01*
X011317Y003374D02*
X011747Y003374D01*
X011747Y003377D02*
X011317Y003377D01*
X011317Y003379D02*
X011747Y003379D01*
X011747Y003382D02*
X011317Y003382D01*
X011317Y003384D02*
X011747Y003384D01*
X011747Y003387D02*
X011317Y003387D01*
X011317Y003389D02*
X011747Y003389D01*
X011747Y003391D02*
X011317Y003391D01*
X011317Y003394D02*
X011747Y003394D01*
X011747Y003396D02*
X011317Y003396D01*
X011317Y003399D02*
X011747Y003399D01*
X011747Y003401D02*
X011317Y003401D01*
X011317Y003404D02*
X011747Y003404D01*
X011747Y003406D02*
X011317Y003406D01*
X011317Y003408D02*
X011747Y003408D01*
X011747Y003411D02*
X011317Y003411D01*
X011317Y003413D02*
X011747Y003413D01*
X011747Y003416D02*
X011317Y003416D01*
X011317Y003418D02*
X011747Y003418D01*
X011747Y003421D02*
X011317Y003421D01*
X011317Y003423D02*
X011747Y003423D01*
X011747Y003426D02*
X011317Y003426D01*
X011317Y003428D02*
X011747Y003428D01*
X011747Y003430D02*
X011317Y003430D01*
X011317Y003433D02*
X011747Y003433D01*
X011747Y003197D01*
X011742Y003149D01*
X011726Y003104D01*
X011339Y003104D01*
X011323Y003149D01*
X011317Y003197D01*
X011317Y003433D01*
X011323Y003481D01*
X011339Y003526D01*
X011364Y003567D01*
X011700Y003567D01*
X011726Y003526D01*
X011742Y003481D01*
X011747Y003433D01*
X011747Y003435D02*
X011318Y003435D01*
X011318Y003438D02*
X011747Y003438D01*
X011746Y003440D02*
X011318Y003440D01*
X011318Y003443D02*
X011746Y003443D01*
X011746Y003445D02*
X011319Y003445D01*
X011319Y003447D02*
X011746Y003447D01*
X011745Y003450D02*
X011319Y003450D01*
X011320Y003452D02*
X011745Y003452D01*
X011745Y003455D02*
X011320Y003455D01*
X011320Y003457D02*
X011744Y003457D01*
X011744Y003460D02*
X011320Y003460D01*
X011321Y003462D02*
X011744Y003462D01*
X011744Y003465D02*
X011321Y003465D01*
X011321Y003467D02*
X011743Y003467D01*
X011743Y003469D02*
X011322Y003469D01*
X011322Y003472D02*
X011743Y003472D01*
X011743Y003474D02*
X011322Y003474D01*
X011322Y003477D02*
X011742Y003477D01*
X011742Y003479D02*
X011323Y003479D01*
X011323Y003482D02*
X011742Y003482D01*
X011741Y003484D02*
X011324Y003484D01*
X011325Y003486D02*
X011740Y003486D01*
X011739Y003489D02*
X011326Y003489D01*
X011326Y003491D02*
X011738Y003491D01*
X011737Y003494D02*
X011327Y003494D01*
X011328Y003496D02*
X011736Y003496D01*
X011736Y003499D02*
X011329Y003499D01*
X011330Y003501D02*
X011735Y003501D01*
X011734Y003504D02*
X011331Y003504D01*
X011332Y003506D02*
X011733Y003506D01*
X011732Y003508D02*
X011332Y003508D01*
X011333Y003511D02*
X011731Y003511D01*
X011730Y003513D02*
X011334Y003513D01*
X011335Y003516D02*
X011730Y003516D01*
X011729Y003518D02*
X011336Y003518D01*
X011337Y003521D02*
X011728Y003521D01*
X011727Y003523D02*
X011338Y003523D01*
X011338Y003525D02*
X011726Y003525D01*
X011725Y003528D02*
X011340Y003528D01*
X011341Y003530D02*
X011723Y003530D01*
X011722Y003533D02*
X011343Y003533D01*
X011344Y003535D02*
X011720Y003535D01*
X011719Y003538D02*
X011346Y003538D01*
X011347Y003540D02*
X011717Y003540D01*
X011716Y003543D02*
X011349Y003543D01*
X011350Y003545D02*
X011714Y003545D01*
X011713Y003547D02*
X011352Y003547D01*
X011353Y003550D02*
X011711Y003550D01*
X011710Y003552D02*
X011355Y003552D01*
X011356Y003555D02*
X011708Y003555D01*
X011707Y003557D02*
X011358Y003557D01*
X011360Y003560D02*
X011705Y003560D01*
X011703Y003562D02*
X011361Y003562D01*
X011363Y003564D02*
X011702Y003564D01*
X011700Y003567D02*
X011666Y003601D01*
X011626Y003627D01*
X011580Y003643D01*
X011532Y003648D01*
X011484Y003643D01*
X011484Y003642D02*
X011581Y003642D01*
X011588Y003640D02*
X011477Y003640D01*
X011470Y003638D02*
X011595Y003638D01*
X011602Y003635D02*
X011463Y003635D01*
X011456Y003633D02*
X011609Y003633D01*
X011616Y003630D02*
X011449Y003630D01*
X011442Y003628D02*
X011622Y003628D01*
X011628Y003625D02*
X011437Y003625D01*
X011439Y003627D02*
X011484Y003643D01*
X011504Y003645D02*
X011560Y003645D01*
X011539Y003647D02*
X011526Y003647D01*
X011439Y003627D02*
X011398Y003601D01*
X011666Y003601D01*
X011669Y003599D02*
X011396Y003599D01*
X011398Y003601D02*
X011364Y003567D01*
X011366Y003569D02*
X011698Y003569D01*
X011696Y003572D02*
X011369Y003572D01*
X011371Y003574D02*
X011693Y003574D01*
X011691Y003577D02*
X011374Y003577D01*
X011376Y003579D02*
X011688Y003579D01*
X011686Y003582D02*
X011379Y003582D01*
X011381Y003584D02*
X011683Y003584D01*
X011681Y003586D02*
X011384Y003586D01*
X011386Y003589D02*
X011679Y003589D01*
X011676Y003591D02*
X011388Y003591D01*
X011391Y003594D02*
X011674Y003594D01*
X011671Y003596D02*
X011393Y003596D01*
X011402Y003603D02*
X011663Y003603D01*
X011659Y003606D02*
X011406Y003606D01*
X011410Y003608D02*
X011655Y003608D01*
X011651Y003611D02*
X011414Y003611D01*
X011417Y003613D02*
X011647Y003613D01*
X011643Y003616D02*
X011421Y003616D01*
X011425Y003618D02*
X011639Y003618D01*
X011635Y003621D02*
X011429Y003621D01*
X011433Y003623D02*
X011632Y003623D01*
X011747Y003313D02*
X011317Y003313D01*
X011317Y003311D02*
X011747Y003311D01*
X011747Y003309D02*
X011317Y003309D01*
X011317Y003306D02*
X011747Y003306D01*
X011747Y003304D02*
X011317Y003304D01*
X011317Y003301D02*
X011747Y003301D01*
X011747Y003299D02*
X011317Y003299D01*
X011317Y003296D02*
X011747Y003296D01*
X011747Y003294D02*
X011317Y003294D01*
X011317Y003291D02*
X011747Y003291D01*
X011747Y003289D02*
X011317Y003289D01*
X011317Y003287D02*
X011747Y003287D01*
X011747Y003284D02*
X011317Y003284D01*
X011317Y003282D02*
X011747Y003282D01*
X011747Y003279D02*
X011317Y003279D01*
X011317Y003277D02*
X011747Y003277D01*
X011747Y003274D02*
X011317Y003274D01*
X011317Y003272D02*
X011747Y003272D01*
X011747Y003270D02*
X011317Y003270D01*
X011317Y003267D02*
X011747Y003267D01*
X011747Y003265D02*
X011317Y003265D01*
X011317Y003262D02*
X011747Y003262D01*
X011747Y003260D02*
X011317Y003260D01*
X011317Y003257D02*
X011747Y003257D01*
X011747Y003255D02*
X011317Y003255D01*
X011317Y003253D02*
X011747Y003253D01*
X011747Y003250D02*
X011317Y003250D01*
X011317Y003248D02*
X011747Y003248D01*
X011747Y003245D02*
X011317Y003245D01*
X011317Y003243D02*
X011747Y003243D01*
X011747Y003240D02*
X011317Y003240D01*
X011317Y003238D02*
X011747Y003238D01*
X011747Y003235D02*
X011317Y003235D01*
X011317Y003233D02*
X011747Y003233D01*
X011747Y003231D02*
X011317Y003231D01*
X011317Y003228D02*
X011747Y003228D01*
X011747Y003226D02*
X011317Y003226D01*
X011317Y003223D02*
X011747Y003223D01*
X011747Y003221D02*
X011317Y003221D01*
X011317Y003218D02*
X011747Y003218D01*
X011747Y003216D02*
X011317Y003216D01*
X011317Y003214D02*
X011747Y003214D01*
X011747Y003211D02*
X011317Y003211D01*
X011317Y003209D02*
X011747Y003209D01*
X011747Y003206D02*
X011317Y003206D01*
X011317Y003204D02*
X011747Y003204D01*
X011747Y003201D02*
X011317Y003201D01*
X011317Y003199D02*
X011747Y003199D01*
X011747Y003196D02*
X011317Y003196D01*
X011318Y003194D02*
X011747Y003194D01*
X011747Y003192D02*
X011318Y003192D01*
X011318Y003189D02*
X011746Y003189D01*
X011746Y003187D02*
X011319Y003187D01*
X011319Y003184D02*
X011746Y003184D01*
X011745Y003182D02*
X011319Y003182D01*
X011319Y003179D02*
X011745Y003179D01*
X011745Y003177D02*
X011320Y003177D01*
X011320Y003175D02*
X011745Y003175D01*
X011744Y003172D02*
X011320Y003172D01*
X011321Y003170D02*
X011744Y003170D01*
X011744Y003167D02*
X011321Y003167D01*
X011321Y003165D02*
X011744Y003165D01*
X011743Y003162D02*
X011321Y003162D01*
X011322Y003160D02*
X011743Y003160D01*
X011743Y003157D02*
X011322Y003157D01*
X011322Y003155D02*
X011742Y003155D01*
X011742Y003153D02*
X011322Y003153D01*
X011323Y003150D02*
X011742Y003150D01*
X011741Y003148D02*
X011323Y003148D01*
X011324Y003145D02*
X011740Y003145D01*
X011740Y003143D02*
X011325Y003143D01*
X011326Y003140D02*
X011739Y003140D01*
X011738Y003138D02*
X011327Y003138D01*
X011328Y003136D02*
X011737Y003136D01*
X011736Y003133D02*
X011328Y003133D01*
X011329Y003131D02*
X011735Y003131D01*
X011734Y003128D02*
X011330Y003128D01*
X011331Y003126D02*
X011734Y003126D01*
X011733Y003123D02*
X011332Y003123D01*
X011333Y003121D02*
X011732Y003121D01*
X011731Y003118D02*
X011334Y003118D01*
X011334Y003116D02*
X011730Y003116D01*
X011729Y003114D02*
X011335Y003114D01*
X011336Y003111D02*
X011728Y003111D01*
X011728Y003109D02*
X011337Y003109D01*
X011338Y003106D02*
X011727Y003106D01*
X011726Y003104D02*
X011700Y003063D01*
X011666Y003029D01*
X011626Y003003D01*
X011580Y002988D01*
X011532Y002982D01*
X011484Y002988D01*
X011439Y003003D01*
X011398Y003029D01*
X011364Y003063D01*
X011339Y003104D01*
X011340Y003101D02*
X011724Y003101D01*
X011723Y003099D02*
X011342Y003099D01*
X011343Y003097D02*
X011721Y003097D01*
X011720Y003094D02*
X011345Y003094D01*
X011346Y003092D02*
X011718Y003092D01*
X011717Y003089D02*
X011348Y003089D01*
X011349Y003087D02*
X011715Y003087D01*
X011714Y003084D02*
X011351Y003084D01*
X011352Y003082D02*
X011712Y003082D01*
X011711Y003079D02*
X011354Y003079D01*
X011356Y003077D02*
X011709Y003077D01*
X011708Y003075D02*
X011357Y003075D01*
X011359Y003072D02*
X011706Y003072D01*
X011704Y003070D02*
X011360Y003070D01*
X011362Y003067D02*
X011703Y003067D01*
X011701Y003065D02*
X011363Y003065D01*
X011365Y003062D02*
X011700Y003062D01*
X011697Y003060D02*
X011367Y003060D01*
X011370Y003058D02*
X011695Y003058D01*
X011692Y003055D02*
X011372Y003055D01*
X011375Y003053D02*
X011690Y003053D01*
X011687Y003050D02*
X011377Y003050D01*
X011380Y003048D02*
X011685Y003048D01*
X011683Y003045D02*
X011382Y003045D01*
X011384Y003043D02*
X011680Y003043D01*
X011678Y003040D02*
X011387Y003040D01*
X011389Y003038D02*
X011675Y003038D01*
X011673Y003036D02*
X011392Y003036D01*
X011394Y003033D02*
X011670Y003033D01*
X011668Y003031D02*
X011397Y003031D01*
X011400Y003028D02*
X011665Y003028D01*
X011661Y003026D02*
X011403Y003026D01*
X011407Y003023D02*
X011657Y003023D01*
X011653Y003021D02*
X011411Y003021D01*
X011415Y003019D02*
X011650Y003019D01*
X011646Y003016D02*
X011419Y003016D01*
X011423Y003014D02*
X011642Y003014D01*
X011638Y003011D02*
X011427Y003011D01*
X011431Y003009D02*
X011634Y003009D01*
X011630Y003006D02*
X011434Y003006D01*
X011438Y003004D02*
X011626Y003004D01*
X011620Y003001D02*
X011445Y003001D01*
X011452Y002999D02*
X011613Y002999D01*
X011606Y002997D02*
X011459Y002997D01*
X011466Y002994D02*
X011599Y002994D01*
X011592Y002992D02*
X011473Y002992D01*
X011479Y002989D02*
X011585Y002989D01*
X011574Y002987D02*
X011491Y002987D01*
X011512Y002984D02*
X011552Y002984D01*
X011532Y004478D02*
X011484Y004484D01*
X011439Y004499D01*
X011398Y004525D01*
X011364Y004559D01*
X011339Y004600D01*
X011323Y004645D01*
X011317Y004693D01*
X011317Y004929D01*
X011323Y004977D01*
X011339Y005022D01*
X011726Y005022D01*
X011742Y004977D01*
X011747Y004929D01*
X011747Y004693D01*
X011317Y004693D01*
X011317Y004695D02*
X011747Y004695D01*
X011747Y004693D02*
X011742Y004645D01*
X011726Y004600D01*
X011700Y004559D01*
X011365Y004559D01*
X011363Y004561D02*
X011702Y004561D01*
X011700Y004559D02*
X011666Y004525D01*
X011626Y004499D01*
X011580Y004484D01*
X011532Y004478D01*
X011530Y004478D02*
X011534Y004478D01*
X011556Y004481D02*
X011509Y004481D01*
X011487Y004483D02*
X011578Y004483D01*
X011586Y004486D02*
X011478Y004486D01*
X011471Y004488D02*
X011593Y004488D01*
X011600Y004491D02*
X011464Y004491D01*
X011457Y004493D02*
X011607Y004493D01*
X011614Y004496D02*
X011450Y004496D01*
X011443Y004498D02*
X011621Y004498D01*
X011627Y004500D02*
X011438Y004500D01*
X011434Y004503D02*
X011631Y004503D01*
X011635Y004505D02*
X011430Y004505D01*
X011426Y004508D02*
X011639Y004508D01*
X011642Y004510D02*
X011422Y004510D01*
X011418Y004513D02*
X011646Y004513D01*
X011650Y004515D02*
X011414Y004515D01*
X011410Y004517D02*
X011654Y004517D01*
X011658Y004520D02*
X011407Y004520D01*
X011403Y004522D02*
X011662Y004522D01*
X011666Y004525D02*
X011399Y004525D01*
X011396Y004527D02*
X011668Y004527D01*
X011671Y004530D02*
X011394Y004530D01*
X011391Y004532D02*
X011673Y004532D01*
X011676Y004534D02*
X011389Y004534D01*
X011386Y004537D02*
X011678Y004537D01*
X011681Y004539D02*
X011384Y004539D01*
X011382Y004542D02*
X011683Y004542D01*
X011685Y004544D02*
X011379Y004544D01*
X011377Y004547D02*
X011688Y004547D01*
X011690Y004549D02*
X011374Y004549D01*
X011372Y004552D02*
X011693Y004552D01*
X011695Y004554D02*
X011369Y004554D01*
X011367Y004556D02*
X011698Y004556D01*
X011703Y004564D02*
X011361Y004564D01*
X011360Y004566D02*
X011705Y004566D01*
X011706Y004569D02*
X011358Y004569D01*
X011357Y004571D02*
X011708Y004571D01*
X011709Y004573D02*
X011355Y004573D01*
X011354Y004576D02*
X011711Y004576D01*
X011712Y004578D02*
X011352Y004578D01*
X011351Y004581D02*
X011714Y004581D01*
X011715Y004583D02*
X011349Y004583D01*
X011348Y004586D02*
X011717Y004586D01*
X011718Y004588D02*
X011346Y004588D01*
X011345Y004591D02*
X011720Y004591D01*
X011722Y004593D02*
X011343Y004593D01*
X011341Y004595D02*
X011723Y004595D01*
X011725Y004598D02*
X011340Y004598D01*
X011339Y004600D02*
X011726Y004600D01*
X011727Y004603D02*
X011338Y004603D01*
X011337Y004605D02*
X011728Y004605D01*
X011729Y004608D02*
X011336Y004608D01*
X011335Y004610D02*
X011729Y004610D01*
X011730Y004612D02*
X011334Y004612D01*
X011333Y004615D02*
X011731Y004615D01*
X011732Y004617D02*
X011333Y004617D01*
X011332Y004620D02*
X011733Y004620D01*
X011734Y004622D02*
X011331Y004622D01*
X011330Y004625D02*
X011735Y004625D01*
X011735Y004627D02*
X011329Y004627D01*
X011328Y004630D02*
X011736Y004630D01*
X011737Y004632D02*
X011327Y004632D01*
X011327Y004634D02*
X011738Y004634D01*
X011739Y004637D02*
X011326Y004637D01*
X011325Y004639D02*
X011740Y004639D01*
X011741Y004642D02*
X011324Y004642D01*
X011323Y004644D02*
X011741Y004644D01*
X011742Y004647D02*
X011323Y004647D01*
X011322Y004649D02*
X011742Y004649D01*
X011742Y004651D02*
X011322Y004651D01*
X011322Y004654D02*
X011743Y004654D01*
X011743Y004656D02*
X011322Y004656D01*
X011321Y004659D02*
X011743Y004659D01*
X011744Y004661D02*
X011321Y004661D01*
X011321Y004664D02*
X011744Y004664D01*
X011744Y004666D02*
X011320Y004666D01*
X011320Y004669D02*
X011744Y004669D01*
X011745Y004671D02*
X011320Y004671D01*
X011320Y004673D02*
X011745Y004673D01*
X011745Y004676D02*
X011319Y004676D01*
X011319Y004678D02*
X011745Y004678D01*
X011746Y004681D02*
X011319Y004681D01*
X011319Y004683D02*
X011746Y004683D01*
X011746Y004686D02*
X011318Y004686D01*
X011318Y004688D02*
X011747Y004688D01*
X011747Y004690D02*
X011318Y004690D01*
X011317Y004698D02*
X011747Y004698D01*
X011747Y004700D02*
X011317Y004700D01*
X011317Y004703D02*
X011747Y004703D01*
X011747Y004705D02*
X011317Y004705D01*
X011317Y004708D02*
X011747Y004708D01*
X011747Y004710D02*
X011317Y004710D01*
X011317Y004712D02*
X011747Y004712D01*
X011747Y004715D02*
X011317Y004715D01*
X011317Y004717D02*
X011747Y004717D01*
X011747Y004720D02*
X011317Y004720D01*
X011317Y004722D02*
X011747Y004722D01*
X011747Y004725D02*
X011317Y004725D01*
X011317Y004727D02*
X011747Y004727D01*
X011747Y004729D02*
X011317Y004729D01*
X011317Y004732D02*
X011747Y004732D01*
X011747Y004734D02*
X011317Y004734D01*
X011317Y004737D02*
X011747Y004737D01*
X011747Y004739D02*
X011317Y004739D01*
X011317Y004742D02*
X011747Y004742D01*
X011747Y004744D02*
X011317Y004744D01*
X011317Y004747D02*
X011747Y004747D01*
X011747Y004749D02*
X011317Y004749D01*
X011317Y004751D02*
X011747Y004751D01*
X011747Y004754D02*
X011317Y004754D01*
X011317Y004756D02*
X011747Y004756D01*
X011747Y004759D02*
X011317Y004759D01*
X011317Y004761D02*
X011747Y004761D01*
X011747Y004764D02*
X011317Y004764D01*
X011317Y004766D02*
X011747Y004766D01*
X011747Y004768D02*
X011317Y004768D01*
X011317Y004771D02*
X011747Y004771D01*
X011747Y004773D02*
X011317Y004773D01*
X011317Y004776D02*
X011747Y004776D01*
X011747Y004778D02*
X011317Y004778D01*
X011317Y004781D02*
X011747Y004781D01*
X011747Y004783D02*
X011317Y004783D01*
X011317Y004786D02*
X011747Y004786D01*
X011747Y004788D02*
X011317Y004788D01*
X011317Y004790D02*
X011747Y004790D01*
X011747Y004793D02*
X011317Y004793D01*
X011317Y004795D02*
X011747Y004795D01*
X011747Y004798D02*
X011317Y004798D01*
X011317Y004800D02*
X011747Y004800D01*
X011747Y004803D02*
X011317Y004803D01*
X011317Y004805D02*
X011747Y004805D01*
X011747Y004807D02*
X011317Y004807D01*
X011317Y004810D02*
X011747Y004810D01*
X011747Y004812D02*
X011317Y004812D01*
X011317Y004815D02*
X011747Y004815D01*
X011747Y004817D02*
X011317Y004817D01*
X011317Y004820D02*
X011747Y004820D01*
X011747Y004822D02*
X011317Y004822D01*
X011317Y004825D02*
X011747Y004825D01*
X011747Y004827D02*
X011317Y004827D01*
X011317Y004829D02*
X011747Y004829D01*
X011747Y004832D02*
X011317Y004832D01*
X011317Y004834D02*
X011747Y004834D01*
X011747Y004837D02*
X011317Y004837D01*
X011317Y004839D02*
X011747Y004839D01*
X011747Y004842D02*
X011317Y004842D01*
X011317Y004844D02*
X011747Y004844D01*
X011747Y004846D02*
X011317Y004846D01*
X011317Y004849D02*
X011747Y004849D01*
X011747Y004851D02*
X011317Y004851D01*
X011317Y004854D02*
X011747Y004854D01*
X011747Y004856D02*
X011317Y004856D01*
X011317Y004859D02*
X011747Y004859D01*
X011747Y004861D02*
X011317Y004861D01*
X011317Y004864D02*
X011747Y004864D01*
X011747Y004866D02*
X011317Y004866D01*
X011317Y004868D02*
X011747Y004868D01*
X011747Y004871D02*
X011317Y004871D01*
X011317Y004873D02*
X011747Y004873D01*
X011747Y004876D02*
X011317Y004876D01*
X011317Y004878D02*
X011747Y004878D01*
X011747Y004881D02*
X011317Y004881D01*
X011317Y004883D02*
X011747Y004883D01*
X011747Y004885D02*
X011317Y004885D01*
X011317Y004888D02*
X011747Y004888D01*
X011747Y004890D02*
X011317Y004890D01*
X011317Y004893D02*
X011747Y004893D01*
X011747Y004895D02*
X011317Y004895D01*
X011317Y004898D02*
X011747Y004898D01*
X011747Y004900D02*
X011317Y004900D01*
X011317Y004903D02*
X011747Y004903D01*
X011747Y004905D02*
X011317Y004905D01*
X011317Y004907D02*
X011747Y004907D01*
X011747Y004910D02*
X011317Y004910D01*
X011317Y004912D02*
X011747Y004912D01*
X011747Y004915D02*
X011317Y004915D01*
X011317Y004917D02*
X011747Y004917D01*
X011747Y004920D02*
X011317Y004920D01*
X011317Y004922D02*
X011747Y004922D01*
X011747Y004924D02*
X011317Y004924D01*
X011317Y004927D02*
X011747Y004927D01*
X011747Y004929D02*
X011317Y004929D01*
X011318Y004932D02*
X011747Y004932D01*
X011747Y004934D02*
X011318Y004934D01*
X011318Y004937D02*
X011746Y004937D01*
X011746Y004939D02*
X011319Y004939D01*
X011319Y004942D02*
X011746Y004942D01*
X011745Y004944D02*
X011319Y004944D01*
X011319Y004946D02*
X011745Y004946D01*
X011745Y004949D02*
X011320Y004949D01*
X011320Y004951D02*
X011745Y004951D01*
X011744Y004954D02*
X011320Y004954D01*
X011320Y004956D02*
X011744Y004956D01*
X011744Y004959D02*
X011321Y004959D01*
X011321Y004961D02*
X011744Y004961D01*
X011743Y004963D02*
X011321Y004963D01*
X011322Y004966D02*
X011743Y004966D01*
X011743Y004968D02*
X011322Y004968D01*
X011322Y004971D02*
X011742Y004971D01*
X011742Y004973D02*
X011322Y004973D01*
X011323Y004976D02*
X011742Y004976D01*
X011741Y004978D02*
X011323Y004978D01*
X011324Y004981D02*
X011741Y004981D01*
X011740Y004983D02*
X011325Y004983D01*
X011326Y004985D02*
X011739Y004985D01*
X011738Y004988D02*
X011327Y004988D01*
X011327Y004990D02*
X011737Y004990D01*
X011736Y004993D02*
X011328Y004993D01*
X011329Y004995D02*
X011735Y004995D01*
X011735Y004998D02*
X011330Y004998D01*
X011331Y005000D02*
X011734Y005000D01*
X011733Y005002D02*
X011332Y005002D01*
X011333Y005005D02*
X011732Y005005D01*
X011731Y005007D02*
X011333Y005007D01*
X011334Y005010D02*
X011730Y005010D01*
X011729Y005012D02*
X011335Y005012D01*
X011336Y005015D02*
X011729Y005015D01*
X011728Y005017D02*
X011337Y005017D01*
X011338Y005020D02*
X011727Y005020D01*
X011726Y005022D02*
X011700Y005063D01*
X011666Y005097D01*
X011626Y005123D01*
X011580Y005139D01*
X011532Y005144D01*
X011484Y005139D01*
X011439Y005123D01*
X011398Y005097D01*
X011364Y005063D01*
X011339Y005022D01*
X011340Y005024D02*
X011725Y005024D01*
X011723Y005027D02*
X011341Y005027D01*
X011343Y005029D02*
X011722Y005029D01*
X011720Y005032D02*
X011344Y005032D01*
X011346Y005034D02*
X011719Y005034D01*
X011717Y005037D02*
X011348Y005037D01*
X011349Y005039D02*
X011715Y005039D01*
X011714Y005041D02*
X011351Y005041D01*
X011352Y005044D02*
X011712Y005044D01*
X011711Y005046D02*
X011354Y005046D01*
X011355Y005049D02*
X011709Y005049D01*
X011708Y005051D02*
X011357Y005051D01*
X011358Y005054D02*
X011706Y005054D01*
X011705Y005056D02*
X011360Y005056D01*
X011361Y005059D02*
X011703Y005059D01*
X011702Y005061D02*
X011363Y005061D01*
X011364Y005063D02*
X011700Y005063D01*
X011698Y005066D02*
X011367Y005066D01*
X011369Y005068D02*
X011695Y005068D01*
X011693Y005071D02*
X011372Y005071D01*
X011374Y005073D02*
X011690Y005073D01*
X011688Y005076D02*
X011377Y005076D01*
X011379Y005078D02*
X011685Y005078D01*
X011683Y005080D02*
X011382Y005080D01*
X011384Y005083D02*
X011681Y005083D01*
X011678Y005085D02*
X011386Y005085D01*
X011389Y005088D02*
X011676Y005088D01*
X011673Y005090D02*
X011391Y005090D01*
X011394Y005093D02*
X011671Y005093D01*
X011668Y005095D02*
X011396Y005095D01*
X011399Y005098D02*
X011666Y005098D01*
X011662Y005100D02*
X011403Y005100D01*
X011406Y005102D02*
X011658Y005102D01*
X011654Y005105D02*
X011410Y005105D01*
X011414Y005107D02*
X011650Y005107D01*
X011646Y005110D02*
X011418Y005110D01*
X011422Y005112D02*
X011643Y005112D01*
X011639Y005115D02*
X011426Y005115D01*
X011430Y005117D02*
X011635Y005117D01*
X011631Y005119D02*
X011434Y005119D01*
X011438Y005122D02*
X011627Y005122D01*
X011621Y005124D02*
X011443Y005124D01*
X011450Y005127D02*
X011614Y005127D01*
X011607Y005129D02*
X011457Y005129D01*
X011464Y005132D02*
X011600Y005132D01*
X011593Y005134D02*
X011471Y005134D01*
X011478Y005137D02*
X011587Y005137D01*
X011578Y005139D02*
X011486Y005139D01*
X011508Y005141D02*
X011557Y005141D01*
X011535Y005144D02*
X011529Y005144D01*
X008346Y004929D02*
X008346Y004693D01*
X007917Y004693D01*
X007922Y004645D01*
X007938Y004600D01*
X007964Y004559D01*
X008299Y004559D01*
X008265Y004525D01*
X007998Y004525D01*
X007964Y004559D01*
X007962Y004561D02*
X008301Y004561D01*
X008299Y004559D02*
X008325Y004600D01*
X008341Y004645D01*
X008346Y004693D01*
X008346Y004695D02*
X007917Y004695D01*
X007917Y004693D02*
X007917Y004929D01*
X007922Y004977D01*
X007938Y005022D01*
X008325Y005022D01*
X008341Y004977D01*
X008346Y004929D01*
X007917Y004929D01*
X007917Y004927D02*
X008346Y004927D01*
X008346Y004924D02*
X007917Y004924D01*
X007917Y004922D02*
X008346Y004922D01*
X008346Y004920D02*
X007917Y004920D01*
X007917Y004917D02*
X008346Y004917D01*
X008346Y004915D02*
X007917Y004915D01*
X007917Y004912D02*
X008346Y004912D01*
X008346Y004910D02*
X007917Y004910D01*
X007917Y004907D02*
X008346Y004907D01*
X008346Y004905D02*
X007917Y004905D01*
X007917Y004903D02*
X008346Y004903D01*
X008346Y004900D02*
X007917Y004900D01*
X007917Y004898D02*
X008346Y004898D01*
X008346Y004895D02*
X007917Y004895D01*
X007917Y004893D02*
X008346Y004893D01*
X008346Y004890D02*
X007917Y004890D01*
X007917Y004888D02*
X008346Y004888D01*
X008346Y004885D02*
X007917Y004885D01*
X007917Y004883D02*
X008346Y004883D01*
X008346Y004881D02*
X007917Y004881D01*
X007917Y004878D02*
X008346Y004878D01*
X008346Y004876D02*
X007917Y004876D01*
X007917Y004873D02*
X008346Y004873D01*
X008346Y004871D02*
X007917Y004871D01*
X007917Y004868D02*
X008346Y004868D01*
X008346Y004866D02*
X007917Y004866D01*
X007917Y004864D02*
X008346Y004864D01*
X008346Y004861D02*
X007917Y004861D01*
X007917Y004859D02*
X008346Y004859D01*
X008346Y004856D02*
X007917Y004856D01*
X007917Y004854D02*
X008346Y004854D01*
X008346Y004851D02*
X007917Y004851D01*
X007917Y004849D02*
X008346Y004849D01*
X008346Y004846D02*
X007917Y004846D01*
X007917Y004844D02*
X008346Y004844D01*
X008346Y004842D02*
X007917Y004842D01*
X007917Y004839D02*
X008346Y004839D01*
X008346Y004837D02*
X007917Y004837D01*
X007917Y004834D02*
X008346Y004834D01*
X008346Y004832D02*
X007917Y004832D01*
X007917Y004829D02*
X008346Y004829D01*
X008346Y004827D02*
X007917Y004827D01*
X007917Y004825D02*
X008346Y004825D01*
X008346Y004822D02*
X007917Y004822D01*
X007917Y004820D02*
X008346Y004820D01*
X008346Y004817D02*
X007917Y004817D01*
X007917Y004815D02*
X008346Y004815D01*
X008346Y004812D02*
X007917Y004812D01*
X007917Y004810D02*
X008346Y004810D01*
X008346Y004807D02*
X007917Y004807D01*
X007917Y004805D02*
X008346Y004805D01*
X008346Y004803D02*
X007917Y004803D01*
X007917Y004800D02*
X008346Y004800D01*
X008346Y004798D02*
X007917Y004798D01*
X007917Y004795D02*
X008346Y004795D01*
X008346Y004793D02*
X007917Y004793D01*
X007917Y004790D02*
X008346Y004790D01*
X008346Y004788D02*
X007917Y004788D01*
X007917Y004786D02*
X008346Y004786D01*
X008346Y004783D02*
X007917Y004783D01*
X007917Y004781D02*
X008346Y004781D01*
X008346Y004778D02*
X007917Y004778D01*
X007917Y004776D02*
X008346Y004776D01*
X008346Y004773D02*
X007917Y004773D01*
X007917Y004771D02*
X008346Y004771D01*
X008346Y004768D02*
X007917Y004768D01*
X007917Y004766D02*
X008346Y004766D01*
X008346Y004764D02*
X007917Y004764D01*
X007917Y004761D02*
X008346Y004761D01*
X008346Y004759D02*
X007917Y004759D01*
X007917Y004756D02*
X008346Y004756D01*
X008346Y004754D02*
X007917Y004754D01*
X007917Y004751D02*
X008346Y004751D01*
X008346Y004749D02*
X007917Y004749D01*
X007917Y004747D02*
X008346Y004747D01*
X008346Y004744D02*
X007917Y004744D01*
X007917Y004742D02*
X008346Y004742D01*
X008346Y004739D02*
X007917Y004739D01*
X007917Y004737D02*
X008346Y004737D01*
X008346Y004734D02*
X007917Y004734D01*
X007917Y004732D02*
X008346Y004732D01*
X008346Y004729D02*
X007917Y004729D01*
X007917Y004727D02*
X008346Y004727D01*
X008346Y004725D02*
X007917Y004725D01*
X007917Y004722D02*
X008346Y004722D01*
X008346Y004720D02*
X007917Y004720D01*
X007917Y004717D02*
X008346Y004717D01*
X008346Y004715D02*
X007917Y004715D01*
X007917Y004712D02*
X008346Y004712D01*
X008346Y004710D02*
X007917Y004710D01*
X007917Y004708D02*
X008346Y004708D01*
X008346Y004705D02*
X007917Y004705D01*
X007917Y004703D02*
X008346Y004703D01*
X008346Y004700D02*
X007917Y004700D01*
X007917Y004698D02*
X008346Y004698D01*
X008346Y004690D02*
X007917Y004690D01*
X007917Y004688D02*
X008346Y004688D01*
X008346Y004686D02*
X007917Y004686D01*
X007918Y004683D02*
X008345Y004683D01*
X008345Y004681D02*
X007918Y004681D01*
X007918Y004678D02*
X008345Y004678D01*
X008344Y004676D02*
X007919Y004676D01*
X007919Y004673D02*
X008344Y004673D01*
X008344Y004671D02*
X007919Y004671D01*
X007919Y004669D02*
X008344Y004669D01*
X008343Y004666D02*
X007920Y004666D01*
X007920Y004664D02*
X008343Y004664D01*
X008343Y004661D02*
X007920Y004661D01*
X007921Y004659D02*
X008342Y004659D01*
X008342Y004656D02*
X007921Y004656D01*
X007921Y004654D02*
X008342Y004654D01*
X008342Y004651D02*
X007921Y004651D01*
X007922Y004649D02*
X008341Y004649D01*
X008341Y004647D02*
X007922Y004647D01*
X007922Y004644D02*
X008341Y004644D01*
X008340Y004642D02*
X007923Y004642D01*
X007924Y004639D02*
X008339Y004639D01*
X008338Y004637D02*
X007925Y004637D01*
X007926Y004634D02*
X008337Y004634D01*
X008336Y004632D02*
X007927Y004632D01*
X007928Y004630D02*
X008335Y004630D01*
X008335Y004627D02*
X007928Y004627D01*
X007929Y004625D02*
X008334Y004625D01*
X008333Y004622D02*
X007930Y004622D01*
X007931Y004620D02*
X008332Y004620D01*
X008331Y004617D02*
X007932Y004617D01*
X007933Y004615D02*
X008330Y004615D01*
X008329Y004612D02*
X007933Y004612D01*
X007934Y004610D02*
X008329Y004610D01*
X008328Y004608D02*
X007935Y004608D01*
X007936Y004605D02*
X008327Y004605D01*
X008326Y004603D02*
X007937Y004603D01*
X007938Y004600D02*
X008325Y004600D01*
X008324Y004598D02*
X007939Y004598D01*
X007941Y004595D02*
X008322Y004595D01*
X008321Y004593D02*
X007942Y004593D01*
X007944Y004591D02*
X008319Y004591D01*
X008318Y004588D02*
X007945Y004588D01*
X007947Y004586D02*
X008316Y004586D01*
X008315Y004583D02*
X007948Y004583D01*
X007950Y004581D02*
X008313Y004581D01*
X008312Y004578D02*
X007951Y004578D01*
X007953Y004576D02*
X008310Y004576D01*
X008309Y004573D02*
X007954Y004573D01*
X007956Y004571D02*
X008307Y004571D01*
X008305Y004569D02*
X007958Y004569D01*
X007959Y004566D02*
X008304Y004566D01*
X008302Y004564D02*
X007961Y004564D01*
X007966Y004556D02*
X008297Y004556D01*
X008294Y004554D02*
X007969Y004554D01*
X007971Y004552D02*
X008292Y004552D01*
X008289Y004549D02*
X007973Y004549D01*
X007976Y004547D02*
X008287Y004547D01*
X008285Y004544D02*
X007978Y004544D01*
X007981Y004542D02*
X008282Y004542D01*
X008280Y004539D02*
X007983Y004539D01*
X007986Y004537D02*
X008277Y004537D01*
X008275Y004534D02*
X007988Y004534D01*
X007991Y004532D02*
X008272Y004532D01*
X008270Y004530D02*
X007993Y004530D01*
X007995Y004527D02*
X008268Y004527D01*
X008265Y004525D02*
X008225Y004499D01*
X008179Y004484D01*
X008131Y004478D01*
X008084Y004484D01*
X008038Y004499D01*
X007998Y004525D01*
X008002Y004522D02*
X008261Y004522D01*
X008257Y004520D02*
X008006Y004520D01*
X008010Y004517D02*
X008253Y004517D01*
X008249Y004515D02*
X008014Y004515D01*
X008017Y004513D02*
X008246Y004513D01*
X008242Y004510D02*
X008021Y004510D01*
X008025Y004508D02*
X008238Y004508D01*
X008234Y004505D02*
X008029Y004505D01*
X008033Y004503D02*
X008230Y004503D01*
X008226Y004500D02*
X008037Y004500D01*
X008043Y004498D02*
X008220Y004498D01*
X008213Y004496D02*
X008050Y004496D01*
X008057Y004493D02*
X008206Y004493D01*
X008199Y004491D02*
X008064Y004491D01*
X008071Y004488D02*
X008192Y004488D01*
X008185Y004486D02*
X008078Y004486D01*
X008086Y004483D02*
X008177Y004483D01*
X008155Y004481D02*
X008108Y004481D01*
X008129Y004478D02*
X008134Y004478D01*
X008346Y004932D02*
X007917Y004932D01*
X007917Y004934D02*
X008346Y004934D01*
X008346Y004937D02*
X007917Y004937D01*
X007918Y004939D02*
X008345Y004939D01*
X008345Y004942D02*
X007918Y004942D01*
X007918Y004944D02*
X008345Y004944D01*
X008344Y004946D02*
X007919Y004946D01*
X007919Y004949D02*
X008344Y004949D01*
X008344Y004951D02*
X007919Y004951D01*
X007919Y004954D02*
X008344Y004954D01*
X008343Y004956D02*
X007920Y004956D01*
X007920Y004959D02*
X008343Y004959D01*
X008343Y004961D02*
X007920Y004961D01*
X007920Y004963D02*
X008342Y004963D01*
X008342Y004966D02*
X007921Y004966D01*
X007921Y004968D02*
X008342Y004968D01*
X008342Y004971D02*
X007921Y004971D01*
X007922Y004973D02*
X008341Y004973D01*
X008341Y004976D02*
X007922Y004976D01*
X007922Y004978D02*
X008341Y004978D01*
X008340Y004981D02*
X007923Y004981D01*
X007924Y004983D02*
X008339Y004983D01*
X008338Y004985D02*
X007925Y004985D01*
X007926Y004988D02*
X008337Y004988D01*
X008336Y004990D02*
X007927Y004990D01*
X007927Y004993D02*
X008335Y004993D01*
X008335Y004995D02*
X007928Y004995D01*
X007929Y004998D02*
X008334Y004998D01*
X008333Y005000D02*
X007930Y005000D01*
X007931Y005002D02*
X008332Y005002D01*
X008331Y005005D02*
X007932Y005005D01*
X007933Y005007D02*
X008330Y005007D01*
X008330Y005010D02*
X007933Y005010D01*
X007934Y005012D02*
X008329Y005012D01*
X008328Y005015D02*
X007935Y005015D01*
X007936Y005017D02*
X008327Y005017D01*
X008326Y005020D02*
X007937Y005020D01*
X007938Y005022D02*
X007964Y005063D01*
X008299Y005063D01*
X008325Y005022D01*
X008324Y005024D02*
X007939Y005024D01*
X007941Y005027D02*
X008322Y005027D01*
X008321Y005029D02*
X007942Y005029D01*
X007944Y005032D02*
X008319Y005032D01*
X008318Y005034D02*
X007945Y005034D01*
X007947Y005037D02*
X008316Y005037D01*
X008315Y005039D02*
X007948Y005039D01*
X007950Y005041D02*
X008313Y005041D01*
X008312Y005044D02*
X007951Y005044D01*
X007953Y005046D02*
X008310Y005046D01*
X008309Y005049D02*
X007954Y005049D01*
X007956Y005051D02*
X008307Y005051D01*
X008306Y005054D02*
X007957Y005054D01*
X007959Y005056D02*
X008304Y005056D01*
X008302Y005059D02*
X007961Y005059D01*
X007962Y005061D02*
X008301Y005061D01*
X008299Y005063D02*
X008265Y005097D01*
X008265Y005098D02*
X007998Y005098D01*
X007998Y005097D02*
X008038Y005123D01*
X008084Y005139D01*
X008131Y005144D01*
X008179Y005139D01*
X008225Y005123D01*
X008265Y005097D01*
X008268Y005095D02*
X007995Y005095D01*
X007993Y005093D02*
X008270Y005093D01*
X008273Y005090D02*
X007990Y005090D01*
X007988Y005088D02*
X008275Y005088D01*
X008277Y005085D02*
X007986Y005085D01*
X007983Y005083D02*
X008280Y005083D01*
X008282Y005080D02*
X007981Y005080D01*
X007978Y005078D02*
X008285Y005078D01*
X008287Y005076D02*
X007976Y005076D01*
X007973Y005073D02*
X008290Y005073D01*
X008292Y005071D02*
X007971Y005071D01*
X007969Y005068D02*
X008294Y005068D01*
X008297Y005066D02*
X007966Y005066D01*
X007964Y005063D02*
X007998Y005097D01*
X008002Y005100D02*
X008261Y005100D01*
X008257Y005102D02*
X008006Y005102D01*
X008010Y005105D02*
X008253Y005105D01*
X008250Y005107D02*
X008013Y005107D01*
X008017Y005110D02*
X008246Y005110D01*
X008242Y005112D02*
X008021Y005112D01*
X008025Y005115D02*
X008238Y005115D01*
X008234Y005117D02*
X008029Y005117D01*
X008033Y005119D02*
X008230Y005119D01*
X008226Y005122D02*
X008037Y005122D01*
X008042Y005124D02*
X008221Y005124D01*
X008214Y005127D02*
X008049Y005127D01*
X008056Y005129D02*
X008207Y005129D01*
X008200Y005132D02*
X008063Y005132D01*
X008070Y005134D02*
X008193Y005134D01*
X008186Y005137D02*
X008077Y005137D01*
X008085Y005139D02*
X008178Y005139D01*
X008156Y005141D02*
X008107Y005141D01*
X008129Y005144D02*
X008134Y005144D01*
X008131Y003648D02*
X008179Y003643D01*
X008225Y003627D01*
X008265Y003601D01*
X008299Y003567D01*
X008325Y003526D01*
X008341Y003481D01*
X008346Y003433D01*
X007917Y003433D01*
X007922Y003481D01*
X007938Y003526D01*
X007964Y003567D01*
X007998Y003601D01*
X008038Y003627D01*
X008084Y003643D01*
X008131Y003648D01*
X008125Y003647D02*
X008138Y003647D01*
X008160Y003645D02*
X008103Y003645D01*
X008083Y003642D02*
X008180Y003642D01*
X008187Y003640D02*
X008076Y003640D01*
X008069Y003638D02*
X008194Y003638D01*
X008201Y003635D02*
X008062Y003635D01*
X008055Y003633D02*
X008208Y003633D01*
X008215Y003630D02*
X008048Y003630D01*
X008041Y003628D02*
X008222Y003628D01*
X008227Y003625D02*
X008036Y003625D01*
X008032Y003623D02*
X008231Y003623D01*
X008235Y003621D02*
X008028Y003621D01*
X008024Y003618D02*
X008239Y003618D01*
X008242Y003616D02*
X008021Y003616D01*
X008017Y003613D02*
X008246Y003613D01*
X008250Y003611D02*
X008013Y003611D01*
X008009Y003608D02*
X008254Y003608D01*
X008258Y003606D02*
X008005Y003606D01*
X008001Y003603D02*
X008262Y003603D01*
X008266Y003601D02*
X007997Y003601D01*
X007995Y003599D02*
X008268Y003599D01*
X008270Y003596D02*
X007993Y003596D01*
X007990Y003594D02*
X008273Y003594D01*
X008275Y003591D02*
X007988Y003591D01*
X007985Y003589D02*
X008278Y003589D01*
X008280Y003586D02*
X007983Y003586D01*
X007980Y003584D02*
X008283Y003584D01*
X008285Y003582D02*
X007978Y003582D01*
X007975Y003579D02*
X008288Y003579D01*
X008290Y003577D02*
X007973Y003577D01*
X007971Y003574D02*
X008292Y003574D01*
X008295Y003572D02*
X007968Y003572D01*
X007966Y003569D02*
X008297Y003569D01*
X008300Y003567D02*
X007963Y003567D01*
X007962Y003564D02*
X008301Y003564D01*
X008303Y003562D02*
X007960Y003562D01*
X007959Y003560D02*
X008304Y003560D01*
X008306Y003557D02*
X007957Y003557D01*
X007956Y003555D02*
X008307Y003555D01*
X008309Y003552D02*
X007954Y003552D01*
X007953Y003550D02*
X008310Y003550D01*
X008312Y003547D02*
X007951Y003547D01*
X007950Y003545D02*
X008313Y003545D01*
X008315Y003543D02*
X007948Y003543D01*
X007947Y003540D02*
X008316Y003540D01*
X008318Y003538D02*
X007945Y003538D01*
X007943Y003535D02*
X008320Y003535D01*
X008321Y003533D02*
X007942Y003533D01*
X007940Y003530D02*
X008323Y003530D01*
X008324Y003528D02*
X007939Y003528D01*
X007938Y003525D02*
X008325Y003525D01*
X008326Y003523D02*
X007937Y003523D01*
X007936Y003521D02*
X008327Y003521D01*
X008328Y003518D02*
X007935Y003518D01*
X007934Y003516D02*
X008329Y003516D01*
X008330Y003513D02*
X007933Y003513D01*
X007932Y003511D02*
X008331Y003511D01*
X008331Y003508D02*
X007932Y003508D01*
X007931Y003506D02*
X008332Y003506D01*
X008333Y003504D02*
X007930Y003504D01*
X007929Y003501D02*
X008334Y003501D01*
X008335Y003499D02*
X007928Y003499D01*
X007927Y003496D02*
X008336Y003496D01*
X008336Y003494D02*
X007926Y003494D01*
X007926Y003491D02*
X008337Y003491D01*
X008338Y003489D02*
X007925Y003489D01*
X007924Y003486D02*
X008339Y003486D01*
X008340Y003484D02*
X007923Y003484D01*
X007922Y003482D02*
X008341Y003482D01*
X008341Y003479D02*
X007922Y003479D01*
X007922Y003477D02*
X008341Y003477D01*
X008342Y003474D02*
X007921Y003474D01*
X007921Y003472D02*
X008342Y003472D01*
X008342Y003469D02*
X007921Y003469D01*
X007920Y003467D02*
X008343Y003467D01*
X008343Y003465D02*
X007920Y003465D01*
X007920Y003462D02*
X008343Y003462D01*
X008343Y003460D02*
X007920Y003460D01*
X007919Y003457D02*
X008344Y003457D01*
X008344Y003455D02*
X007919Y003455D01*
X007919Y003452D02*
X008344Y003452D01*
X008344Y003450D02*
X007919Y003450D01*
X007918Y003447D02*
X008345Y003447D01*
X008345Y003445D02*
X007918Y003445D01*
X007918Y003443D02*
X008345Y003443D01*
X008346Y003440D02*
X007917Y003440D01*
X007917Y003438D02*
X008346Y003438D01*
X008346Y003435D02*
X007917Y003435D01*
X007917Y003433D02*
X007917Y003197D01*
X007922Y003149D01*
X007938Y003104D01*
X008325Y003104D01*
X008299Y003063D01*
X008265Y003029D01*
X008225Y003003D01*
X008179Y002988D01*
X008131Y002982D01*
X008084Y002988D01*
X008038Y003003D01*
X007998Y003029D01*
X007964Y003063D01*
X007938Y003104D01*
X007937Y003106D02*
X008326Y003106D01*
X008325Y003104D02*
X008341Y003149D01*
X008346Y003197D01*
X008346Y003433D01*
X008346Y003430D02*
X007917Y003430D01*
X007917Y003428D02*
X008346Y003428D01*
X008346Y003426D02*
X007917Y003426D01*
X007917Y003423D02*
X008346Y003423D01*
X008346Y003421D02*
X007917Y003421D01*
X007917Y003418D02*
X008346Y003418D01*
X008346Y003416D02*
X007917Y003416D01*
X007917Y003413D02*
X008346Y003413D01*
X008346Y003411D02*
X007917Y003411D01*
X007917Y003408D02*
X008346Y003408D01*
X008346Y003406D02*
X007917Y003406D01*
X007917Y003404D02*
X008346Y003404D01*
X008346Y003401D02*
X007917Y003401D01*
X007917Y003399D02*
X008346Y003399D01*
X008346Y003396D02*
X007917Y003396D01*
X007917Y003394D02*
X008346Y003394D01*
X008346Y003391D02*
X007917Y003391D01*
X007917Y003389D02*
X008346Y003389D01*
X008346Y003387D02*
X007917Y003387D01*
X007917Y003384D02*
X008346Y003384D01*
X008346Y003382D02*
X007917Y003382D01*
X007917Y003379D02*
X008346Y003379D01*
X008346Y003377D02*
X007917Y003377D01*
X007917Y003374D02*
X008346Y003374D01*
X008346Y003372D02*
X007917Y003372D01*
X007917Y003369D02*
X008346Y003369D01*
X008346Y003367D02*
X007917Y003367D01*
X007917Y003365D02*
X008346Y003365D01*
X008346Y003362D02*
X007917Y003362D01*
X007917Y003360D02*
X008346Y003360D01*
X008346Y003357D02*
X007917Y003357D01*
X007917Y003355D02*
X008346Y003355D01*
X008346Y003352D02*
X007917Y003352D01*
X007917Y003350D02*
X008346Y003350D01*
X008346Y003348D02*
X007917Y003348D01*
X007917Y003345D02*
X008346Y003345D01*
X008346Y003343D02*
X007917Y003343D01*
X007917Y003340D02*
X008346Y003340D01*
X008346Y003338D02*
X007917Y003338D01*
X007917Y003335D02*
X008346Y003335D01*
X008346Y003333D02*
X007917Y003333D01*
X007917Y003330D02*
X008346Y003330D01*
X008346Y003328D02*
X007917Y003328D01*
X007917Y003326D02*
X008346Y003326D01*
X008346Y003323D02*
X007917Y003323D01*
X007917Y003321D02*
X008346Y003321D01*
X008346Y003318D02*
X007917Y003318D01*
X007917Y003316D02*
X008346Y003316D01*
X008346Y003313D02*
X007917Y003313D01*
X007917Y003311D02*
X008346Y003311D01*
X008346Y003309D02*
X007917Y003309D01*
X007917Y003306D02*
X008346Y003306D01*
X008346Y003304D02*
X007917Y003304D01*
X007917Y003301D02*
X008346Y003301D01*
X008346Y003299D02*
X007917Y003299D01*
X007917Y003296D02*
X008346Y003296D01*
X008346Y003294D02*
X007917Y003294D01*
X007917Y003291D02*
X008346Y003291D01*
X008346Y003289D02*
X007917Y003289D01*
X007917Y003287D02*
X008346Y003287D01*
X008346Y003284D02*
X007917Y003284D01*
X007917Y003282D02*
X008346Y003282D01*
X008346Y003279D02*
X007917Y003279D01*
X007917Y003277D02*
X008346Y003277D01*
X008346Y003274D02*
X007917Y003274D01*
X007917Y003272D02*
X008346Y003272D01*
X008346Y003270D02*
X007917Y003270D01*
X007917Y003267D02*
X008346Y003267D01*
X008346Y003265D02*
X007917Y003265D01*
X007917Y003262D02*
X008346Y003262D01*
X008346Y003260D02*
X007917Y003260D01*
X007917Y003257D02*
X008346Y003257D01*
X008346Y003255D02*
X007917Y003255D01*
X007917Y003253D02*
X008346Y003253D01*
X008346Y003250D02*
X007917Y003250D01*
X007917Y003248D02*
X008346Y003248D01*
X008346Y003245D02*
X007917Y003245D01*
X007917Y003243D02*
X008346Y003243D01*
X008346Y003240D02*
X007917Y003240D01*
X007917Y003238D02*
X008346Y003238D01*
X008346Y003235D02*
X007917Y003235D01*
X007917Y003233D02*
X008346Y003233D01*
X008346Y003231D02*
X007917Y003231D01*
X007917Y003228D02*
X008346Y003228D01*
X008346Y003226D02*
X007917Y003226D01*
X007917Y003223D02*
X008346Y003223D01*
X008346Y003221D02*
X007917Y003221D01*
X007917Y003218D02*
X008346Y003218D01*
X008346Y003216D02*
X007917Y003216D01*
X007917Y003214D02*
X008346Y003214D01*
X008346Y003211D02*
X007917Y003211D01*
X007917Y003209D02*
X008346Y003209D01*
X008346Y003206D02*
X007917Y003206D01*
X007917Y003204D02*
X008346Y003204D01*
X008346Y003201D02*
X007917Y003201D01*
X007917Y003199D02*
X008346Y003199D01*
X008346Y003196D02*
X007917Y003196D01*
X007917Y003194D02*
X008346Y003194D01*
X008346Y003192D02*
X007917Y003192D01*
X007918Y003189D02*
X008345Y003189D01*
X008345Y003187D02*
X007918Y003187D01*
X007918Y003184D02*
X008345Y003184D01*
X008345Y003182D02*
X007918Y003182D01*
X007919Y003179D02*
X008344Y003179D01*
X008344Y003177D02*
X007919Y003177D01*
X007919Y003175D02*
X008344Y003175D01*
X008344Y003172D02*
X007919Y003172D01*
X007920Y003170D02*
X008343Y003170D01*
X008343Y003167D02*
X007920Y003167D01*
X007920Y003165D02*
X008343Y003165D01*
X008342Y003162D02*
X007921Y003162D01*
X007921Y003160D02*
X008342Y003160D01*
X008342Y003157D02*
X007921Y003157D01*
X007921Y003155D02*
X008342Y003155D01*
X008341Y003153D02*
X007922Y003153D01*
X007922Y003150D02*
X008341Y003150D01*
X008340Y003148D02*
X007923Y003148D01*
X007923Y003145D02*
X008340Y003145D01*
X008339Y003143D02*
X007924Y003143D01*
X007925Y003140D02*
X008338Y003140D01*
X008337Y003138D02*
X007926Y003138D01*
X007927Y003136D02*
X008336Y003136D01*
X008335Y003133D02*
X007928Y003133D01*
X007929Y003131D02*
X008334Y003131D01*
X008334Y003128D02*
X007929Y003128D01*
X007930Y003126D02*
X008333Y003126D01*
X008332Y003123D02*
X007931Y003123D01*
X007932Y003121D02*
X008331Y003121D01*
X008330Y003118D02*
X007933Y003118D01*
X007934Y003116D02*
X008329Y003116D01*
X008329Y003114D02*
X007934Y003114D01*
X007935Y003111D02*
X008328Y003111D01*
X008327Y003109D02*
X007936Y003109D01*
X007939Y003101D02*
X008324Y003101D01*
X008322Y003099D02*
X007941Y003099D01*
X007942Y003097D02*
X008321Y003097D01*
X008319Y003094D02*
X007944Y003094D01*
X007946Y003092D02*
X008317Y003092D01*
X008316Y003089D02*
X007947Y003089D01*
X007949Y003087D02*
X008314Y003087D01*
X008313Y003084D02*
X007950Y003084D01*
X007952Y003082D02*
X008311Y003082D01*
X008310Y003079D02*
X007953Y003079D01*
X007955Y003077D02*
X008308Y003077D01*
X008307Y003075D02*
X007956Y003075D01*
X007958Y003072D02*
X008305Y003072D01*
X008304Y003070D02*
X007959Y003070D01*
X007961Y003067D02*
X008302Y003067D01*
X008301Y003065D02*
X007962Y003065D01*
X007964Y003062D02*
X008299Y003062D01*
X008296Y003060D02*
X007967Y003060D01*
X007969Y003058D02*
X008294Y003058D01*
X008292Y003055D02*
X007971Y003055D01*
X007974Y003053D02*
X008289Y003053D01*
X008287Y003050D02*
X007976Y003050D01*
X007979Y003048D02*
X008284Y003048D01*
X008282Y003045D02*
X007981Y003045D01*
X007984Y003043D02*
X008279Y003043D01*
X008277Y003040D02*
X007986Y003040D01*
X007989Y003038D02*
X008274Y003038D01*
X008272Y003036D02*
X007991Y003036D01*
X007993Y003033D02*
X008270Y003033D01*
X008267Y003031D02*
X007996Y003031D01*
X007999Y003028D02*
X008264Y003028D01*
X008260Y003026D02*
X008003Y003026D01*
X008006Y003023D02*
X008257Y003023D01*
X008253Y003021D02*
X008010Y003021D01*
X008014Y003019D02*
X008249Y003019D01*
X008245Y003016D02*
X008018Y003016D01*
X008022Y003014D02*
X008241Y003014D01*
X008237Y003011D02*
X008026Y003011D01*
X008030Y003009D02*
X008233Y003009D01*
X008229Y003006D02*
X008034Y003006D01*
X008038Y003004D02*
X008225Y003004D01*
X008219Y003001D02*
X008044Y003001D01*
X008051Y002999D02*
X008212Y002999D01*
X008205Y002997D02*
X008058Y002997D01*
X008065Y002994D02*
X008198Y002994D01*
X008191Y002992D02*
X008072Y002992D01*
X008079Y002989D02*
X008184Y002989D01*
X008173Y002987D02*
X008090Y002987D01*
X008111Y002984D02*
X008152Y002984D01*
D17*
X008183Y003263D02*
X008131Y003315D01*
X008183Y003263D02*
X008749Y003263D01*
X008749Y002958D01*
X008931Y002775D01*
X009081Y002775D01*
X009331Y002525D01*
X009233Y003263D02*
X009233Y003625D01*
X010331Y002525D02*
X010430Y002623D01*
X010430Y003263D01*
X010430Y003625D01*
X010914Y003263D02*
X011531Y003263D01*
X011531Y003315D01*
X011531Y004762D02*
X011531Y004811D01*
X011532Y004762D02*
X011531Y004762D01*
D18*
X011533Y004762D02*
X011532Y004720D01*
X011536Y004679D01*
X011543Y004638D01*
X011554Y004598D01*
X011569Y004559D01*
X011587Y004522D01*
X011608Y004486D01*
X011633Y004453D01*
X011661Y004422D01*
X011691Y004393D01*
X011724Y004368D01*
X011759Y004346D01*
X011796Y004327D01*
X011835Y004312D01*
X011875Y004300D01*
X011916Y004292D01*
X011957Y004288D01*
X011957Y003840D02*
X011982Y003815D01*
X010791Y003815D01*
X010631Y003975D01*
X010103Y003975D01*
X010081Y003977D01*
X010059Y003976D01*
X010037Y003970D01*
X010017Y003961D01*
X009999Y003949D01*
X009983Y003934D01*
X009969Y003916D01*
X009960Y003896D01*
X009953Y003875D01*
X009953Y003325D01*
X010028Y003278D01*
X010028Y003263D01*
X009710Y003375D02*
X009710Y003875D01*
X009704Y003894D01*
X009696Y003912D01*
X009685Y003929D01*
X009671Y003943D01*
X009655Y003956D01*
X009638Y003965D01*
X009619Y003972D01*
X009600Y003976D01*
X009580Y003977D01*
X009560Y003975D01*
X009031Y003975D01*
X008872Y003815D01*
X007681Y003815D01*
X007706Y003840D01*
X007706Y004288D02*
X007747Y004292D01*
X007788Y004300D01*
X007828Y004312D01*
X007867Y004327D01*
X007904Y004346D01*
X007939Y004368D01*
X007972Y004393D01*
X008002Y004422D01*
X008030Y004453D01*
X008055Y004486D01*
X008076Y004522D01*
X008094Y004559D01*
X008109Y004598D01*
X008120Y004638D01*
X008127Y004679D01*
X008131Y004720D01*
X008130Y004762D01*
X008131Y004762D02*
X008131Y004811D01*
X009635Y003328D02*
X009635Y003263D01*
X009635Y003328D02*
X009710Y003375D01*
D19*
X009233Y003625D03*
X010430Y003625D03*
M02*
